<svg xmlns:inkscape="http://www.inkscape.org/namespaces/inkscape" xmlns:sodipodi="http://sodipodi.sourceforge.net/DTD/sodipodi-0.dtd" xmlns:xlink="http://www.w3.org/1999/xlink" xmlns="http://www.w3.org/2000/svg" xmlns:svg="http://www.w3.org/2000/svg" version="1.1" id="svg1" width="382.66669" height="382.66669" viewBox="0 0 682.66669 682.66669">
  <g id="layer-MC4" inkscape:groupmode="layer" inkscape:label="PREVIEW">
    <path id="path4" d="m 0,0 v -77.981 l -18.755,-10.26 -67.326,-6.736 h -95.217 v 82.398 l 14.105,6.732 c 0,0.387 -14.105,6.619 -14.096,7.006 0.028,2.269 0.141,4.52 0.339,6.752 0.49,5.773 1.535,11.395 3.061,16.801 0.904,3.202 1.977,6.319 3.221,9.361 3.964,9.795 9.596,18.732 16.537,26.464 4.436,4.935 9.399,9.38 14.804,13.241 14.843,10.632 33.028,16.876 52.673,16.876 25.032,0 47.691,-10.143 64.096,-26.548 7.054,-7.054 12.95,-15.256 17.367,-24.307 1.017,-2.067 -14.267,-4.702 -13.411,-6.853 0.856,-2.151 17.851,-3.817 18.543,-6.049 C -1.422,18.402 0,9.371 0,0" style="fill:#ccb654;fill-opacity:1;fill-rule:nonzero;stroke:none" transform="matrix(1.3333333,0,0,-1.3333333,609.78747,195.21973)" clip-path="url(#clipPath5)"/>
    <path id="path6" d="m 0,0 c 2.034,-4.134 3.748,-8.438 5.133,-12.902 l -82.536,-0.075 c 6.799,5.923 16.688,8.052 25.314,5.443 2.891,-0.876 5.688,-2.251 8.712,-2.411 4.614,-0.244 8.824,2.326 12.977,4.342 C -21.011,-1.055 -10.388,0.895 0,0" style="fill:#ffe6c8;fill-opacity:1;fill-rule:nonzero;stroke:none" transform="matrix(1.3333333,0,0,-1.3333333,597.53227,142.15453)" clip-path="url(#clipPath7)"/>
    <path id="path8" d="M 0,0 C -0.565,0 -1.224,-0.132 -1.789,-0.132 H -89.872 V 13.09 c 0,0.387 0,0.773 0.009,1.159 6.225,2.985 14.032,2.599 19.843,-1.177 1.526,-0.989 2.957,-2.214 4.718,-2.694 2.741,-0.763 5.594,0.414 8.269,1.375 C -37.812,18.609 -14.946,13.891 0,0" style="fill:#ffe6c8;fill-opacity:1;fill-rule:nonzero;stroke:none" transform="matrix(1.3333333,0,0,-1.3333333,487.88573,212.67347)" clip-path="url(#clipPath9)"/>
    <path id="path10" d="m 0,0 h -87.075 c 4.708,5.302 11.932,8.278 19.023,7.835 6.941,-0.424 13.543,-3.908 20.484,-3.513 4.435,0.255 8.608,2.063 12.901,3.156 C -22.791,10.481 -9.597,7.553 0,0" style="fill:#ffe6c8;fill-opacity:1;fill-rule:nonzero;stroke:none" transform="matrix(1.3333333,0,0,-1.3333333,540.32333,108.32587)" clip-path="url(#clipPath11)"/>
    <path id="path12" d="m 0,0 c -9.383,-5.942 -22.454,-5.348 -31.26,1.42 -3.419,2.628 -6.158,6.016 -9.064,9.202 -2.906,3.186 -6.101,6.26 -10.051,7.988 -3.952,1.727 -8.82,1.892 -12.375,-0.549 3.071,4.162 6.816,7.912 11.693,9.633 2.537,0.896 5.2,1.393 7.874,1.682 2.685,0.291 5.403,0.374 8.087,0.067 5.729,-0.653 11.153,-3.07 15.939,-6.286 C -10.716,17.487 -3.775,9.441 0,0" style="fill:#9f8300;fill-opacity:1;fill-rule:nonzero;stroke:none" transform="matrix(1.3333333,0,0,-1.3333333,570.40013,176.6572)" clip-path="url(#clipPath13)"/>
    <path id="path14" d="m 0,0 c -1.717,3.64 -4.843,6.434 -8.201,8.653 -5.121,3.385 -11.22,5.698 -17.326,5.063 -5.536,-0.575 -10.608,-3.533 -14.681,-7.326 -4.074,-3.794 -7.276,-8.41 -10.444,-12.987 4.911,-5.23 11.581,-8.988 18.623,-10.363 2.396,-0.468 4.866,-0.68 7.281,-0.32 3.887,0.579 7.42,2.604 10.535,4.999 3.116,2.395 5.908,5.185 8.994,7.618 C -3.575,-3.366 -2.083,-0.214 0,0" style="fill:#9f8300;fill-opacity:1;fill-rule:nonzero;stroke:none" transform="matrix(1.3333333,0,0,-1.3333333,420.8128,165.1064)" clip-path="url(#clipPath15)"/>
    <path id="path16" d="m 0,0 c -1.928,5.007 -7.04,7.867 -11.347,11.066 -7.232,5.373 -13.018,12.814 -15.873,21.359 -2.856,8.545 -2.655,18.181 1.098,26.371 C -14.848,55.347 -5.299,46.673 -1.774,35.423 0.656,27.667 0.429,19.361 0.122,11.239 -0.006,7.868 0.147,3.371 0,0" style="fill:#9f8300;fill-opacity:1;fill-rule:nonzero;stroke:none" transform="matrix(1.3333333,0,0,-1.3333333,437.37987,166.92347)" clip-path="url(#clipPath17)"/>
    <path id="path18" d="m 0,0 c 0.188,3.152 -0.986,6.231 -2.466,9.02 -1.481,2.788 -3.287,5.409 -4.534,8.31 -1.46,3.401 -2.11,7.106 -2.316,10.802 -0.226,4.043 0.072,8.146 1.251,12.02 1.029,3.385 2.712,6.542 4.674,9.486 2.653,3.982 5.832,7.613 9.43,10.769 3.606,-3.342 5.93,-7.602 7.858,-12.124 1.521,-3.566 2.908,-7.234 3.421,-11.076 C 18.236,30.334 16.275,23.324 13.049,17.187 9.823,11.05 4.411,5.35 0,0" style="fill:#9f8300;fill-opacity:1;fill-rule:nonzero;stroke:none" transform="matrix(1.3333333,0,0,-1.3333333,461.50947,159.816)" clip-path="url(#clipPath19)"/>
    <path id="path20" d="M 0,0 C 7.426,21.376 10.404,44.286 8.689,66.85" style="fill:none;stroke:#300000;stroke-width:1.347;stroke-linecap:round;stroke-linejoin:round;stroke-miterlimit:10;stroke-dasharray:none;stroke-opacity:1" transform="matrix(1.3333333,0,0,-1.3333333,452.15787,199.344)" clip-path="url(#clipPath21)"/>
    <path id="path22" d="m 0,0 c 3.388,-12.747 12.112,-23.307 17.93,-35.143 4.867,-9.9 7.684,-20.679 9.855,-31.494" style="fill:none;stroke:#300000;stroke-width:1.347;stroke-linecap:round;stroke-linejoin:round;stroke-miterlimit:10;stroke-dasharray:none;stroke-opacity:1" transform="matrix(1.3333333,0,0,-1.3333333,408.19373,105.40333)" clip-path="url(#clipPath23)"/>
    <path id="path24" d="M 0,0 C 7.046,5.644 14.729,11.542 23.743,12.047 29.508,12.37 35.256,10.362 40.02,7.1 47.784,1.784 53.102,-6.965 54.248,-16.305" style="fill:none;stroke:#300000;stroke-width:1.347;stroke-linecap:round;stroke-linejoin:round;stroke-miterlimit:10;stroke-dasharray:none;stroke-opacity:1" transform="matrix(1.3333333,0,0,-1.3333333,361.38387,170.63053)" clip-path="url(#clipPath25)"/>
    <path id="path26" d="m 0,0 c -0.065,6.224 3.004,12.026 6.353,17.273 2.784,4.362 5.877,8.623 9.939,11.828 8.447,6.664 20.379,7.907 30.672,4.775 10.294,-3.132 19.049,-10.189 25.882,-18.501" style="fill:none;stroke:#300000;stroke-width:1.347;stroke-linecap:round;stroke-linejoin:round;stroke-miterlimit:10;stroke-dasharray:none;stroke-opacity:1" transform="matrix(1.3333333,0,0,-1.3333333,461.9248,192.97613)" clip-path="url(#clipPath27)"/>
    <path id="path28" d="M 0,0 15.068,-62.196 H 58.67 L 70.853,-0.962 C 70.853,-0.962 -0.481,0.481 0,0" style="fill:#ff4200;fill-opacity:1;fill-rule:nonzero;stroke:none" transform="matrix(1.3333333,0,0,-1.3333333,400.54267,180.7868)" clip-path="url(#clipPath29)"/>
    <path id="path30" d="m 0,0 -6.879,-4.127 c 0,0 -18.803,22.013 -18.345,27.975 0,0 -1.146,2.523 1.147,4.357 l 5.503,-5.045 c 0,0 -0.458,3.211 2.981,3.669 0,0 0.23,4.128 4.128,4.357 0,0 -0.459,3.898 2.981,5.962 3.44,2.064 7.109,0.688 7.109,0.688 l 5.044,-8.714 c 0,0 -1.72,-5.618 -3.554,-5.389 0,0 1.719,-3.325 -0.344,-5.618 -2.064,-2.293 -3.21,-1.605 -3.21,-1.605 0,0 0.917,-3.21 -2.064,-4.127 l 6.42,-5.504 z" style="fill:#ff9066;fill-opacity:1;fill-rule:nonzero;stroke:none" transform="matrix(1.3333333,0,0,-1.3333333,543.766,240.96773)" clip-path="url(#clipPath31)"/>
    <g opacity="0.5" id="g33" clip-path="url(#clipPath34)">
      <path d="m 0,0 -6.879,-4.127 c 0,0 -18.803,22.013 -18.345,27.975 0,0 -1.146,2.523 1.147,4.357 l 5.503,-5.045 c 0,0 -0.458,3.211 2.981,3.669 0,0 0.23,4.128 4.128,4.357 0,0 -0.459,3.898 2.981,5.962 3.44,2.064 7.109,0.688 7.109,0.688 l 5.044,-8.714 c 0,0 -1.72,-5.618 -3.554,-5.389 0,0 1.719,-3.325 -0.344,-5.618 -2.064,-2.293 -3.21,-1.605 -3.21,-1.605 0,0 0.917,-3.21 -2.064,-4.127 l 6.42,-5.504 z" style="fill:#300000;fill-opacity:1;fill-rule:nonzero;stroke:none" transform="matrix(1.3333333,0,0,-1.3333333,543.766,240.96773)" clip-path="url(#clipPath32)" id="path33"/>
    </g>
    <path id="path35" d="m 0,0 c 0,0 -3.612,0.287 -2.981,-3.669 0.63,-3.956 6.478,-9.975 9.23,-10.663 2.751,-0.688 4.987,0.516 5.159,2.58" style="fill:none;stroke:#300000;stroke-width:1.347;stroke-linecap:round;stroke-linejoin:round;stroke-miterlimit:10;stroke-dasharray:none;stroke-opacity:1" transform="matrix(1.3333333,0,0,-1.3333333,522.9756,205.1956)" clip-path="url(#clipPath36)"/>
    <path id="path37" d="m 0,0 c 0,0 -4.815,-0.803 -3.325,-5.389 1.491,-4.586 8.943,-9.631 11.351,-9.287 2.408,0.344 3.669,3.096 2.178,6.306" style="fill:none;stroke:#300000;stroke-width:1.347;stroke-linecap:round;stroke-linejoin:round;stroke-miterlimit:10;stroke-dasharray:none;stroke-opacity:1" transform="matrix(1.3333333,0,0,-1.3333333,528.47893,199.3864)" clip-path="url(#clipPath38)"/>
    <path id="path39" d="m 0,0 c 0,0 -9.401,1.032 -8.599,-6.306 0.803,-7.338 12.383,-10.663 12.727,-7.797" style="fill:none;stroke:#300000;stroke-width:1.347;stroke-linecap:round;stroke-linejoin:round;stroke-miterlimit:10;stroke-dasharray:none;stroke-opacity:1" transform="matrix(1.3333333,0,0,-1.3333333,540.55573,190.21387)" clip-path="url(#clipPath40)"/>
    <path id="path41" d="m 0,0 5.733,19.491 c 0,0 5.733,4.587 6.191,8.714 0.459,4.128 -25.912,27.059 -25.912,27.059 l -8.026,-6.192 10.043,-15.176 -8.896,-17.156 6.421,-5.504 -0.115,-1.147 -0.803,-5.732 -6.879,-4.128 -13.299,-8.255 -9.173,-29.122 53.658,-14.446 4.586,29.122 z" style="fill:#ffe6c8;fill-opacity:1;fill-rule:nonzero;stroke:none" transform="matrix(1.3333333,0,0,-1.3333333,564.25107,246.77693)" clip-path="url(#clipPath42)"/>
    <path id="path43" d="M 0,0 8.37,7.682" style="fill:none;stroke:#300000;stroke-width:1.347;stroke-linecap:round;stroke-linejoin:round;stroke-miterlimit:10;stroke-dasharray:none;stroke-opacity:1" transform="matrix(1.3333333,0,0,-1.3333333,541.932,190.51987)" clip-path="url(#clipPath44)"/>
    <path id="path45" d="m 0,0 c 0,0 -2.981,-5.503 2.981,-12.383 5.962,-6.879 12.153,-10.548 12.153,-10.548 0,0 -3.21,-10.09 -2.293,-13.07 0.917,-2.981 13.3,-20.18 13.3,-20.18 l -4.586,-29.122 21.784,-3.669 c 0,0 -12.841,75.443 -15.134,77.277 C 25.912,-9.86 0,0 0,0" style="fill:#ff9066;fill-opacity:1;fill-rule:nonzero;stroke:none" transform="matrix(1.3333333,0,0,-1.3333333,547.4352,201.83227)" clip-path="url(#clipPath46)"/>
    <g opacity="0.5" id="g48" clip-path="url(#clipPath49)">
      <path d="m 0,0 c 0,0 -2.981,-5.503 2.981,-12.383 5.962,-6.879 12.153,-10.548 12.153,-10.548 0,0 -3.21,-10.09 -2.293,-13.07 0.917,-2.981 13.3,-20.18 13.3,-20.18 l -4.586,-29.122 21.784,-3.669 c 0,0 -12.841,75.443 -15.134,77.277 C 25.912,-9.86 0,0 0,0" style="fill:#300000;fill-opacity:1;fill-rule:nonzero;stroke:none" transform="matrix(1.3333333,0,0,-1.3333333,547.4352,201.83227)" clip-path="url(#clipPath47)" id="path48"/>
    </g>
    <path id="path50" d="m 0,0 c 0,0 -2.293,-2.064 0.573,-8.255 2.866,-6.192 14.561,-14.676 14.561,-14.676 l 2.637,-1.605" style="fill:none;stroke:#300000;stroke-width:1.347;stroke-linecap:round;stroke-linejoin:round;stroke-miterlimit:10;stroke-dasharray:none;stroke-opacity:1" transform="matrix(1.3333333,0,0,-1.3333333,547.4352,201.83227)" clip-path="url(#clipPath51)"/>
    <path id="path52" d="M 0,0 -2.179,-14.905 -22.357,-27.288 -31.53,-56.41" style="fill:none;stroke:#300000;stroke-width:1.347;stroke-linecap:round;stroke-linejoin:round;stroke-miterlimit:10;stroke-dasharray:none;stroke-opacity:1" transform="matrix(1.3333333,0,0,-1.3333333,546.67093,221.09467)" clip-path="url(#clipPath53)"/>
    <path id="path54" d="m 0,0 c 0,0 -1.191,0.214 -1.446,-3.365 l -82.597,-2.888 c -8.014,4.049 -16.415,8.739 -23.845,13.787 -23.563,16.029 -37.03,33.668 -38.951,36.23 -1.922,2.561 -2.722,6.413 -2.722,6.413 l -0.518,0.801 -1.083,1.667 -0.16,0.254 c 0,0 3.522,2.571 7.854,-0.801 0.236,-0.188 0.48,-0.376 0.735,-0.593 3.861,-3.24 8.899,-9.154 9.86,-10.275 0.094,-0.122 0.141,-0.188 0.141,-0.188 l 6.696,-2.929 -0.914,0.772 -0.009,0.01 -5.773,4.869 -8.334,20.04 c 0,0 0.009,0 0.028,0.009 0.33,0.057 3.042,0.528 5.952,-0.63 0.085,-0.029 0.169,-0.066 0.254,-0.104 1.836,-0.791 3.739,-2.251 5.142,-4.888 3.852,-7.213 6.414,-10.745 8.184,-12.026 1.488,-1.083 8.504,-3.89 13.147,-3.654 h 0.085 c 0.81,0.047 1.535,0.188 2.156,0.452 4.163,1.761 6.724,6.253 6.885,9.295 0.16,2.741 3.795,11.056 8.956,12.356 0.574,0.141 1.177,0.198 1.789,0.151 0,0 -6.413,-29.976 -3.532,-36.07 1.366,-2.891 8.627,-6.761 17.404,-10.425 2.891,-1.224 5.962,-2.42 9.041,-3.55 7.214,-2.656 14.466,-4.963 19.73,-6.386 6.094,-1.638 15.36,-3.399 23.977,-4.878 C -13.241,1.968 -5.264,0.772 -1.808,0.264 -0.65,0.094 0,0 0,0" style="fill:#ff9066;fill-opacity:1;fill-rule:nonzero;stroke:none" transform="matrix(1.3333333,0,0,-1.3333333,606.37213,313.5172)" clip-path="url(#clipPath55)"/>
    <g opacity="0.5" id="g57" clip-path="url(#clipPath58)">
      <path d="m 0,0 c 0,0 -74.609,-2.675 -74.863,-6.253 h -9.18 c -8.014,4.049 -16.415,8.739 -23.845,13.787 -23.563,16.029 -37.03,33.668 -38.951,36.23 -1.922,2.561 -2.722,6.413 -2.722,6.413 l -0.518,0.801 -1.083,1.667 -0.16,0.254 c 0,0 3.522,2.571 7.854,-0.801 0.236,-0.188 0.48,-0.376 0.735,-0.593 3.861,-3.24 8.899,-9.154 9.86,-10.275 0.094,-0.122 0.141,-0.188 0.141,-0.188 l 6.696,-2.929 -0.914,0.772 -0.009,0.01 -5.773,4.869 -8.334,20.04 c 0,0 0.009,0 0.028,0.009 0.33,0.057 3.042,0.528 5.952,-0.63 0.085,-0.029 0.169,-0.066 0.254,-0.104 1.836,-0.791 3.739,-2.251 5.142,-4.888 3.852,-7.213 6.414,-10.745 8.184,-12.026 1.488,-1.083 8.504,-3.89 13.147,-3.654 h 0.085 c 0.81,0.047 1.535,0.188 2.156,0.452 4.163,1.761 6.724,6.253 6.885,9.295 0.16,2.741 3.795,11.056 8.956,12.356 0.574,0.141 1.177,0.198 1.789,0.151 0,0 -6.413,-29.976 -3.532,-36.07 1.366,-2.891 8.627,-6.761 17.404,-10.425 2.891,-1.224 5.962,-2.42 9.041,-3.55 7.214,-2.656 14.466,-4.963 19.73,-6.386 6.094,-1.638 15.36,-3.399 23.977,-4.878 C -13.241,1.968 -5.264,0.772 -1.808,0.264 -0.65,0.094 0,0 0,0" style="fill:#300000;fill-opacity:1;fill-rule:nonzero;stroke:none" transform="matrix(1.3333333,0,0,-1.3333333,606.37213,313.5172)" clip-path="url(#clipPath56)" id="path57"/>
    </g>
    <path id="path59" d="m 0,0 -10.78,7.814 -8.336,20.038 c 0,0 6.973,1.122 10.46,-4.047 3.486,-5.17 5.891,-10.58 8.295,-12.624 2.404,-2.044 11.542,-5.41 15.75,-4.448" style="fill:none;stroke:#300000;stroke-width:0.942;stroke-linecap:round;stroke-linejoin:round;stroke-miterlimit:10;stroke-dasharray:none;stroke-opacity:1" transform="matrix(1.3333333,0,0,-1.3333333,443.77053,265.5856)" clip-path="url(#clipPath60)"/>
    <path id="path61" d="m 0,0 -21.28,23.083 c 0,0 2.885,3.206 7.935,-0.32 5.05,-3.527 10.74,-11.061 10.74,-11.061 L 4.929,8.896" style="fill:none;stroke:#300000;stroke-width:0.942;stroke-linecap:round;stroke-linejoin:round;stroke-miterlimit:10;stroke-dasharray:none;stroke-opacity:1" transform="matrix(1.3333333,0,0,-1.3333333,432.87013,274.402)" clip-path="url(#clipPath62)"/>
    <path id="path63" d="m 0,0 v -16.854 l -77.658,-0.164 7.619,16.792 1.903,4.182 0.734,1.629 9.371,-3.127 c 0,0 9.38,6.979 29.816,3.607 1.987,-0.33 3.899,-0.659 5.736,-0.998 C -16.151,3.908 -10.764,2.722 -6.498,1.676 -3.908,1.055 -1.733,0.48 0,0" style="fill:#ff4200;fill-opacity:1;fill-rule:nonzero;stroke:none" transform="matrix(1.3333333,0,0,-1.3333333,609.78747,299.16493)" clip-path="url(#clipPath64)"/>
    <path id="path65" d="m 0,0 c -3.121,0 -5.651,2.53 -5.651,5.65 v 94.977 c 0,2.65 0.116,5.369 0.343,8.091 -0.138,1.085 -0.22,2.046 -0.257,2.983 -0.051,1.274 0.326,2.471 1.006,3.449 0.361,2.383 0.815,4.761 1.355,7.114 -0.82,1.004 -1.56,2.05 -2.213,3.133 -4.367,7.243 -4.745,15.707 -4.758,23.074 -0.002,1.579 0.656,3.087 1.816,4.158 1.048,0.969 2.419,1.501 3.835,1.501 0.15,0 0.302,-0.005 0.453,-0.018 4.074,-0.328 8.694,-0.822 13.357,-1.945 9.72,15.348 23.41,27.514 39.856,35.376 2.815,2.449 5.831,4.634 8.973,6.504 0.886,0.528 1.886,0.795 2.89,0.795 0.744,0 1.491,-0.146 2.194,-0.443 0.58,-0.244 1.107,-0.58 1.565,-0.988 8.393,2.338 17.076,3.521 25.881,3.521 25.722,0 49.904,-10.016 68.091,-28.203 18.194,-18.194 28.213,-42.38 28.213,-68.102 V 5.65 c 0,-3.12 -2.53,-5.65 -5.65,-5.65 z" style="fill:#ffffff;fill-opacity:1;fill-rule:nonzero;stroke:none" transform="matrix(1.3333333,0,0,-1.3333333,87.535467,329.708)" clip-path="url(#clipPath66)"/>
    <path id="path67" d="M 0,0 V -25.083 L -28.698,-48.486 0,-91.447 v -3.53 H -181.299 V 0 c 0,50.064 40.581,90.654 90.645,90.654 25.032,0 47.691,-10.143 64.096,-26.548 C -10.152,47.7 0,25.032 0,0" style="fill:#ffc76d;fill-opacity:1;fill-rule:nonzero;stroke:none" transform="matrix(1.3333333,0,0,-1.3333333,329.35587,194.098)" clip-path="url(#clipPath68)"/>
    <path id="path69" d="m 0,0 c -1.966,5.529 -5.41,10.554 -6.484,16.323 -1.172,6.297 0.632,12.809 3.406,18.583 4.814,10.021 12.639,18.573 22.193,24.259 1.63,-6.776 3.752,-13.021 4.262,-19.972 0.3,-4.086 0.399,-8.245 -0.569,-12.225 C 21.499,21.58 18.288,16.805 14.41,12.841 10.533,8.878 4.52,3.211 0,0" style="fill:#ccb654;fill-opacity:1;fill-rule:nonzero;stroke:none" transform="matrix(1.3333333,0,0,-1.3333333,143.4776,154.89813)" clip-path="url(#clipPath70)"/>
    <path id="path71" d="m 0,0 c -0.461,9.007 4.344,17.821 11.442,23.385 7.099,5.564 16.226,8.117 25.24,8.43 C 36.649,27.122 37.561,22.15 36.322,17.623 34.488,10.922 28.744,5.849 22.37,3.086 15.995,0.324 6.905,0.768 0,0" style="fill:#ccb654;fill-opacity:1;fill-rule:nonzero;stroke:none" transform="matrix(1.3333333,0,0,-1.3333333,153.9808,210.6976)" clip-path="url(#clipPath72)"/>
    <path id="path73" d="m 0,0 c 0.659,6.686 3.399,13.152 7.745,18.275 4.346,5.123 10.279,8.881 16.768,10.621 3.65,0.979 7.435,1.329 11.199,1.675 C 34.888,25.947 35.001,21.466 33.795,16.927 32.589,12.388 30.415,7.919 26.697,5.049 24.21,3.128 21.183,2.035 18.136,1.264 12.623,-0.131 5.68,0.285 0,0" style="fill:#ccb654;fill-opacity:1;fill-rule:nonzero;stroke:none" transform="matrix(1.3333333,0,0,-1.3333333,149.02053,174.3564)" clip-path="url(#clipPath74)"/>
    <path id="path75" d="m 0,0 c -0.999,1.934 -3.167,3.009 -5.31,3.396 -2.143,0.386 -4.342,0.212 -6.516,0.34 -6.656,0.392 -13.022,3.727 -17.407,8.751 -4.385,5.024 -6.811,11.641 -7.075,18.304 9.438,1.04 19.002,-1.879 26.149,-8.131 2.054,-1.797 3.937,-3.822 5.342,-6.161 C -2.011,11.826 -0.495,5.428 0,0" style="fill:#ccb654;fill-opacity:1;fill-rule:nonzero;stroke:none" transform="matrix(1.3333333,0,0,-1.3333333,136.14293,220.0888)" clip-path="url(#clipPath76)"/>
    <path id="path77" d="m 0,0 c -1.155,1.951 -3.174,3.265 -5.305,4.039 -2.131,0.774 -4.4,1.069 -6.639,1.422 -5.058,0.796 -10.113,1.925 -14.752,4.091 -4.64,2.166 -8.87,5.441 -11.514,9.826 -3.582,5.941 -3.935,13.227 -3.946,20.165 6.972,-0.562 14.138,-1.528 20.452,-4.541 6.313,-3.013 11.962,-7.631 15.565,-13.627 C -2.354,15.074 -1.289,7.236 0,0" style="fill:#ccb654;fill-opacity:1;fill-rule:nonzero;stroke:none" transform="matrix(1.3333333,0,0,-1.3333333,137.80053,183.01787)" clip-path="url(#clipPath78)"/>
    <path id="path79" d="m 0,0 c -0.539,12.902 -1.078,25.804 -1.616,38.707 -0.411,9.85 -0.822,19.741 0.165,29.55 0.987,9.81 3.428,19.607 8.38,28.132" style="fill:none;stroke:#300000;stroke-width:0.942;stroke-linecap:round;stroke-linejoin:round;stroke-miterlimit:10;stroke-dasharray:none;stroke-opacity:1" transform="matrix(1.3333333,0,0,-1.3333333,145.30307,242.54787)" clip-path="url(#clipPath80)"/>
    <path id="path81" d="m 0,0 c -1.887,7.611 -6.629,14.257 -12.251,19.723 -5.622,5.465 -12.145,9.897 -18.493,14.501" style="fill:none;stroke:#300000;stroke-width:0.942;stroke-linecap:round;stroke-linejoin:round;stroke-miterlimit:10;stroke-dasharray:none;stroke-opacity:1" transform="matrix(1.3333333,0,0,-1.3333333,145.046,236.876)" clip-path="url(#clipPath82)"/>
    <path id="path83" d="M 0,0 C 5.12,11.201 13.153,21.055 23.092,28.327" style="fill:none;stroke:#300000;stroke-width:0.942;stroke-linecap:round;stroke-linejoin:round;stroke-miterlimit:10;stroke-dasharray:none;stroke-opacity:1" transform="matrix(1.3333333,0,0,-1.3333333,144.84147,226.1748)" clip-path="url(#clipPath84)"/>
    <path id="path85" d="m 0,0 c -0.854,6.4 -3.838,12.366 -7.664,17.567 -3.826,5.201 -8.488,9.72 -13.127,14.212" style="fill:none;stroke:#300000;stroke-width:0.942;stroke-linecap:round;stroke-linejoin:round;stroke-miterlimit:10;stroke-dasharray:none;stroke-opacity:1" transform="matrix(1.3333333,0,0,-1.3333333,143.2816,198.32973)" clip-path="url(#clipPath86)"/>
    <path id="path87" d="m 0,0 c 2.99,7.826 8.177,14.799 14.812,19.913 1.096,0.845 2.236,1.646 3.197,2.643" style="fill:none;stroke:#300000;stroke-width:0.942;stroke-linecap:round;stroke-linejoin:round;stroke-miterlimit:10;stroke-dasharray:none;stroke-opacity:1" transform="matrix(1.3333333,0,0,-1.3333333,142.74253,186.79067)" clip-path="url(#clipPath88)"/>
    <path id="path89" d="M 0,0 H 62.196 L 47.128,-48.09 H 20.519 Z" style="fill:#ff4200;fill-opacity:1;fill-rule:nonzero;stroke:none" transform="matrix(1.3333333,0,0,-1.3333333,100.86947,241.2204)" clip-path="url(#clipPath90)"/>
    <path id="path91" d="M 0,0 H 57.467" style="fill:none;stroke:#300000;stroke-width:0.942;stroke-linecap:round;stroke-linejoin:round;stroke-miterlimit:10;stroke-dasharray:none;stroke-opacity:1" transform="matrix(1.3333333,0,0,-1.3333333,105.03747,249.87653)" clip-path="url(#clipPath92)"/>
    <path id="path93" d="m 0,0 c 0,0 -37.27,9.377 -38.472,0 -1.202,-9.377 28.854,-18.274 28.854,-18.274 z" style="fill:#ff9066;fill-opacity:1;fill-rule:nonzero;stroke:none" transform="matrix(1.3333333,0,0,-1.3333333,201.43133,159.57453)" clip-path="url(#clipPath94)"/>
    <path id="path95" d="m 0,0 v -66.14 l -19.485,10.341 c 0,0 -13.458,-5.773 -23.563,-1.206 -4.822,2.185 -11.066,5.896 -16.274,9.182 -1.403,0.885 -2.721,1.733 -3.917,2.515 -2.825,1.836 -4.982,3.296 -5.839,3.89 -0.274,0.178 -0.415,0.282 -0.415,0.282 l -0.753,0.894 -3.504,4.173 -1.28,1.516 -2.034,2.429 -1.592,1.884 -4.699,5.594 -0.085,0.104 1.46,1.629 0.282,0.311 0.669,0.753 1.591,1.771 3.174,3.531 0.292,0.33 0.122,0.132 5.679,6.328 8.476,9.446 6.197,6.903 2.496,2.788 3.22,3.588 c 0,0 -0.555,1.582 -1.384,4.229 -0.48,1.534 -1.045,3.428 -1.648,5.584 -0.424,1.516 -0.867,3.164 -1.3,4.907 -0.395,1.554 -0.782,3.183 -1.158,4.859 -2.11,9.569 -3.654,20.672 -1.912,28.442 0.245,1.064 0.546,2.062 0.923,2.985 0.65,1.667 1.535,3.079 2.675,4.181 1.422,1.375 3.767,0.951 4.577,-0.857 4.087,-9.238 17.988,-38.537 37.228,-56.976 C -7.704,6.414 -3.748,2.995 0,0" style="fill:#ff9066;fill-opacity:1;fill-rule:nonzero;stroke:none" transform="matrix(1.3333333,0,0,-1.3333333,329.35587,227.83813)" clip-path="url(#clipPath96)"/>
    <path id="path97" d="m 0,0 v -7.425 l 55.912,-114.935 53.219,22.121 0.849,4.224 z" style="fill:#9f8300;fill-opacity:1;fill-rule:nonzero;stroke:none" transform="matrix(1.3333333,0,0,-1.3333333,164.49907,133.11027)" clip-path="url(#clipPath98)"/>
    <path id="path99" d="M 0,0 57.11,-117.711 109.98,-96.015 56.112,16.46 Z" style="fill:#300000;fill-opacity:1;fill-rule:nonzero;stroke:none" transform="matrix(1.3333333,0,0,-1.3333333,164.49907,133.11027)" clip-path="url(#clipPath100)"/>
    <path id="path101" d="M 0,0 50.069,-103.198 96.42,-84.177 49.194,14.43 Z" style="fill:#ffe6c8;fill-opacity:1;fill-rule:nonzero;stroke:none" transform="matrix(1.3333333,0,0,-1.3333333,174.18,137.90587)" clip-path="url(#clipPath102)"/>
    <path id="path103" d="M 0,0 C 0,0 -12.725,-1.818 -8.764,-12.597 -4.802,-23.376 6.783,-27.341 6.783,-27.341 l -0.218,-2.166 c 0,0 -19.731,1.233 -9.715,-13.569 0,0 6.113,-9.554 23.941,-12.731 0,0 -10.05,-4.676 -7.311,-13.544 2.739,-8.868 20.504,-6.034 23.371,-4.321 2.867,1.714 1.827,9.157 -1.312,10.326 -3.138,1.169 -4.338,0.916 -4.338,0.916 l -1.747,5.993 c 0,0 4.899,2.938 2.185,9.401 -2.714,6.464 -12.237,8.848 -12.237,8.848 l -4.268,9.413 c 0,0 5.359,1.099 4.33,7.34 -1.027,6.241 -13.346,11.4 -13.346,11.4 z" style="fill:#ff9066;fill-opacity:1;fill-rule:nonzero;stroke:none" transform="matrix(1.3333333,0,0,-1.3333333,184.86627,185.426)" clip-path="url(#clipPath104)"/>
    <path id="path105" d="M 0,0 C 0,0 16.066,-7.083 15.051,-13.466 14.246,-18.535 11.764,-20.875 2.357,-18.17" style="fill:none;stroke:#300000;stroke-width:0.942;stroke-linecap:round;stroke-linejoin:round;stroke-miterlimit:10;stroke-dasharray:none;stroke-opacity:1" transform="matrix(1.3333333,0,0,-1.3333333,190.76733,197.65387)" clip-path="url(#clipPath106)"/>
    <path id="path107" d="m 0,0 c 0,0 -16.035,4.158 -15.195,-7.015 0.84,-11.172 18.449,-16.396 21.705,-17.323 3.257,-0.928 14.358,-4.339 16.326,2.458 2.049,7.075 -5.857,11.8 -18.736,16.954" style="fill:none;stroke:#300000;stroke-width:0.942;stroke-linecap:round;stroke-linejoin:round;stroke-miterlimit:10;stroke-dasharray:none;stroke-opacity:1" transform="matrix(1.3333333,0,0,-1.3333333,197.6404,226.0088)" clip-path="url(#clipPath108)"/>
    <path id="path109" d="m 0,0 c 0,0 13.147,-0.181 14.472,-4.175 1.325,-3.993 1.705,-9.6 -8.393,-9.707 -10.099,-0.108 -16.534,2.069 -16.447,8.963" style="fill:none;stroke:#300000;stroke-width:0.942;stroke-linecap:round;stroke-linejoin:round;stroke-miterlimit:10;stroke-dasharray:none;stroke-opacity:1" transform="matrix(1.3333333,0,0,-1.3333333,216.3024,267.4912)" clip-path="url(#clipPath110)"/>
    <path id="path111" d="m 0,0 c -0.637,-2.508 -1.356,-4.995 -2.155,-7.457 0,0 -11.82,0.95 -10.625,7.092 C -11.07,8.43 0,0 0,0 Z" style="fill:none;stroke:#300000;stroke-width:0.942;stroke-linecap:round;stroke-linejoin:round;stroke-miterlimit:10;stroke-dasharray:none;stroke-opacity:1" transform="matrix(1.3333333,0,0,-1.3333333,206.348,210.70147)" clip-path="url(#clipPath112)"/>
    <path id="path113" d="m 0,0 3.283,7.89 c 0,0 -10.013,6.947 -12.685,1.949 C -13.993,1.252 0,0 0,0 Z" style="fill:none;stroke:#300000;stroke-width:0.942;stroke-linecap:round;stroke-linejoin:round;stroke-miterlimit:10;stroke-dasharray:none;stroke-opacity:1" transform="matrix(1.3333333,0,0,-1.3333333,220.69507,258.46707)" clip-path="url(#clipPath114)"/>
    <path id="path115" d="m 0,0 0.395,-7.049 c 0,0 -10.231,-2.674 -11.089,2.607 C -11.551,0.839 0,0 0,0 Z" style="fill:none;stroke:#300000;stroke-width:0.942;stroke-linecap:round;stroke-linejoin:round;stroke-miterlimit:10;stroke-dasharray:none;stroke-opacity:1" transform="matrix(1.3333333,0,0,-1.3333333,230.906,273.96253)" clip-path="url(#clipPath116)"/>
    <path id="path117" d="M 0,0 1.923,-4.328 38.712,8.416 36.308,13.225 Z" style="fill:#300000;fill-opacity:1;fill-rule:nonzero;stroke:none" transform="matrix(1.3333333,0,0,-1.3333333,187.6456,147.0712)" clip-path="url(#clipPath118)"/>
    <path id="path119" d="m 0,0 c 0,-4.604 -3.732,-8.335 -8.335,-8.335 -4.604,0 -8.336,3.731 -8.336,8.335 0,4.604 3.732,8.335 8.336,8.335 C -3.732,8.335 0,4.604 0,0" style="fill:#ff8b00;fill-opacity:1;fill-rule:nonzero;stroke:none" transform="matrix(1.3333333,0,0,-1.3333333,239.4756,168.2308)" clip-path="url(#clipPath120)"/>
    <path id="path121" d="M 0,0 V -4.488" style="fill:none;stroke:#ff8b00;stroke-width:0.942;stroke-linecap:butt;stroke-linejoin:miter;stroke-miterlimit:10;stroke-dasharray:none;stroke-opacity:1" transform="matrix(1.3333333,0,0,-1.3333333,228.14747,148.78093)" clip-path="url(#clipPath122)"/>
    <path id="path123" d="M 0,0 V -4.488" style="fill:none;stroke:#ff8b00;stroke-width:0.942;stroke-linecap:butt;stroke-linejoin:miter;stroke-miterlimit:10;stroke-dasharray:none;stroke-opacity:1" transform="matrix(1.3333333,0,0,-1.3333333,228.14747,182.12333)" clip-path="url(#clipPath124)"/>
    <path id="path125" d="M 0,0 -3.174,-3.174" style="fill:none;stroke:#ff8b00;stroke-width:0.942;stroke-linecap:butt;stroke-linejoin:miter;stroke-miterlimit:10;stroke-dasharray:none;stroke-opacity:1" transform="matrix(1.3333333,0,0,-1.3333333,242.05173,154.54)" clip-path="url(#clipPath126)"/>
    <path id="path127" d="M 0,0 -3.173,-3.174" style="fill:none;stroke:#ff8b00;stroke-width:0.942;stroke-linecap:butt;stroke-linejoin:miter;stroke-miterlimit:10;stroke-dasharray:none;stroke-opacity:1" transform="matrix(1.3333333,0,0,-1.3333333,218.47493,178.1168)" clip-path="url(#clipPath128)"/>
    <path id="path129" d="M 0,0 H -4.488" style="fill:none;stroke:#ff8b00;stroke-width:0.942;stroke-linecap:butt;stroke-linejoin:miter;stroke-miterlimit:10;stroke-dasharray:none;stroke-opacity:1" transform="matrix(1.3333333,0,0,-1.3333333,247.81093,168.44427)" clip-path="url(#clipPath130)"/>
    <path id="path131" d="M 0,0 H -4.488" style="fill:none;stroke:#ff8b00;stroke-width:0.942;stroke-linecap:butt;stroke-linejoin:miter;stroke-miterlimit:10;stroke-dasharray:none;stroke-opacity:1" transform="matrix(1.3333333,0,0,-1.3333333,214.4684,168.44427)" clip-path="url(#clipPath132)"/>
    <path id="path133" d="M 0,0 -3.174,3.174" style="fill:none;stroke:#ff8b00;stroke-width:0.942;stroke-linecap:butt;stroke-linejoin:miter;stroke-miterlimit:10;stroke-dasharray:none;stroke-opacity:1" transform="matrix(1.3333333,0,0,-1.3333333,242.05173,182.34853)" clip-path="url(#clipPath134)"/>
    <path id="path135" d="M 0,0 -3.173,3.174" style="fill:none;stroke:#ff8b00;stroke-width:0.942;stroke-linecap:butt;stroke-linejoin:miter;stroke-miterlimit:10;stroke-dasharray:none;stroke-opacity:1" transform="matrix(1.3333333,0,0,-1.3333333,218.47493,158.77173)" clip-path="url(#clipPath136)"/>
    <path id="path137" d="M 0,0 34.625,14.427" style="fill:none;stroke:#300000;stroke-width:0.942;stroke-linecap:round;stroke-linejoin:round;stroke-miterlimit:10;stroke-dasharray:none;stroke-opacity:1" transform="matrix(1.3333333,0,0,-1.3333333,214.04133,201.7868)" clip-path="url(#clipPath138)"/>
    <path id="path139" d="M 0,0 34.625,14.427" style="fill:none;stroke:#300000;stroke-width:0.942;stroke-linecap:round;stroke-linejoin:round;stroke-miterlimit:10;stroke-dasharray:none;stroke-opacity:1" transform="matrix(1.3333333,0,0,-1.3333333,216.49907,207.87787)" clip-path="url(#clipPath140)"/>
    <path id="path141" d="M 0,0 34.625,14.427" style="fill:none;stroke:#300000;stroke-width:0.942;stroke-linecap:round;stroke-linejoin:round;stroke-miterlimit:10;stroke-dasharray:none;stroke-opacity:1" transform="matrix(1.3333333,0,0,-1.3333333,219.06413,214.0764)" clip-path="url(#clipPath142)"/>
    <path id="path143" d="M 0,0 34.625,14.427" style="fill:none;stroke:#300000;stroke-width:0.942;stroke-linecap:round;stroke-linejoin:round;stroke-miterlimit:10;stroke-dasharray:none;stroke-opacity:1" transform="matrix(1.3333333,0,0,-1.3333333,221.9496,221.23667)" clip-path="url(#clipPath144)"/>
    <path id="path145" d="m 0,0 c 0,0 -4.032,-7.608 -1.007,-12.946 3.025,-5.338 8.355,-4.884 10.88,-3.121 2.525,1.762 2.571,7.382 -0.141,10.13 C 7.02,-3.19 0,0 0,0" style="fill:#ccb654;fill-opacity:1;fill-rule:nonzero;stroke:none" transform="matrix(1.3333333,0,0,-1.3333333,236.16373,222.06933)" clip-path="url(#clipPath146)"/>
    <path id="path147" d="M 0,0 14.748,6.572" style="fill:none;stroke:#300000;stroke-width:0.942;stroke-linecap:round;stroke-linejoin:round;stroke-miterlimit:10;stroke-dasharray:none;stroke-opacity:1" transform="matrix(1.3333333,0,0,-1.3333333,253.796,219.74053)" clip-path="url(#clipPath148)"/>
    <path id="path149" d="M 0,0 15.549,7.374" style="fill:none;stroke:#300000;stroke-width:0.942;stroke-linecap:round;stroke-linejoin:round;stroke-miterlimit:10;stroke-dasharray:none;stroke-opacity:1" transform="matrix(1.3333333,0,0,-1.3333333,255.93333,226.15267)" clip-path="url(#clipPath150)"/>
    <path id="path151" d="M 0,0 14.908,6.893" style="fill:none;stroke:#300000;stroke-width:0.942;stroke-linecap:round;stroke-linejoin:round;stroke-miterlimit:10;stroke-dasharray:none;stroke-opacity:1" transform="matrix(1.3333333,0,0,-1.3333333,259.35253,232.99187)" clip-path="url(#clipPath152)"/>
    <path id="path153" d="M 0,0 C 0,0 -6.091,33.824 -1.763,35.426 2.565,37.029 7.374,0 7.374,0" style="fill:none;stroke:#300000;stroke-width:0.942;stroke-linecap:round;stroke-linejoin:round;stroke-miterlimit:10;stroke-dasharray:none;stroke-opacity:1" transform="matrix(1.3333333,0,0,-1.3333333,128.2276,305.3408)" clip-path="url(#clipPath154)"/>
    <path id="path155" d="M 0,0 C 0,0 -0.801,35.426 3.527,36.067 7.854,36.708 6.252,-0.481 6.252,-0.481" style="fill:none;stroke:#300000;stroke-width:0.942;stroke-linecap:round;stroke-linejoin:round;stroke-miterlimit:10;stroke-dasharray:none;stroke-opacity:1" transform="matrix(1.3333333,0,0,-1.3333333,141.47893,304.91307)" clip-path="url(#clipPath156)"/>
    <path id="path157" d="M 0,0 C 0,0 3.527,35.747 7.855,36.228 12.183,36.709 5.611,0.16 5.611,0.16" style="fill:none;stroke:#300000;stroke-width:0.942;stroke-linecap:round;stroke-linejoin:round;stroke-miterlimit:10;stroke-dasharray:none;stroke-opacity:1" transform="matrix(1.3333333,0,0,-1.3333333,156.22627,305.55427)" clip-path="url(#clipPath158)"/>
    <path id="path159" d="m 0,0 c -3.121,0 -5.651,2.53 -5.651,5.651 v 94.976 c 0,0.432 10e-4,0.862 0.011,1.293 0.029,2.345 0.151,4.761 0.36,7.118 0.507,5.983 1.601,11.991 3.251,17.836 0.955,3.383 2.109,6.734 3.428,9.965 3.021,7.467 6.998,14.554 11.815,21.044 0.624,0.856 1.24,1.661 1.855,2.423 1.211,1.539 2.533,3.113 3.887,4.626 1.162,1.289 2.303,2.494 3.407,3.598 3.814,3.835 7.965,7.362 12.326,10.475 0.532,0.382 1.088,0.772 1.655,1.153 15.979,10.964 34.771,16.774 54.301,16.774 17.555,0 34.736,-4.769 49.687,-13.789 5.86,-3.539 11.351,-7.709 16.318,-12.398 0.687,-0.638 1.388,-1.317 2.086,-2.016 7.577,-7.577 13.785,-16.265 18.449,-25.825 2.153,-4.375 3.989,-8.992 5.451,-13.706 0.813,-2.613 1.533,-5.356 2.14,-8.149 1.443,-6.684 2.173,-13.552 2.173,-20.422 V 5.651 C 186.949,2.53 184.418,0 181.298,0 Z" style="fill:#ffffff;fill-opacity:1;fill-rule:nonzero;stroke:none" transform="matrix(1.3333333,0,0,-1.3333333,84.519867,629.54133)" clip-path="url(#clipPath160)"/>
    <path id="path161" d="m 0,0 9.458,-34.304 v -5.37 L 7.293,-75.982 h -172.402 l -6.732,32.22 v 42.96 l 7.052,3.688 -7.052,4.328 v 9.015 c 0,0.387 0,0.773 0.009,1.159 0.029,2.269 0.142,4.52 0.339,6.753 0.49,5.772 1.535,11.395 3.061,16.8 0.904,3.203 1.978,6.32 3.221,9.362 2.872,7.1 6.621,13.75 11.122,19.814 0.556,0.763 1.121,1.507 1.714,2.241 1.187,1.507 2.42,2.977 3.701,4.409 1.036,1.148 2.101,2.278 3.193,3.371 3.588,3.606 7.468,6.912 11.612,9.869 0.499,0.358 1.008,0.716 1.526,1.064 14.55,9.983 32.17,15.813 51.147,15.813 17.112,0 33.112,-4.738 46.768,-12.978 2.768,-1.672 0.446,-5.718 3.009,-7.665 2.563,-1.947 10.01,-1.795 12.351,-4.004 0.669,-0.621 1.318,-1.252 1.968,-1.902 C -10.046,73.281 -4.151,65.079 0.266,56.028 2.3,51.895 4.014,47.591 5.398,43.126 6.18,40.612 6.849,38.05 7.414,35.451 8.751,29.254 0,6.602 0,0" style="fill:#ccb654;fill-opacity:1;fill-rule:nonzero;stroke:none" transform="matrix(1.3333333,0,0,-1.3333333,314.6032,517.80947)" clip-path="url(#clipPath162)"/>
    <path id="path163" d="M 0,0 C -1.761,0 -3.409,0.546 -5.17,0.546 L -94.138,0.414 v 7.911 c 7.355,3.748 16.424,4.285 23.92,0.753 2.675,-1.262 5.529,-3.022 8.382,-2.203 1.573,0.452 2.807,1.62 4.078,2.646 8.278,6.744 19.9,8.504 30.306,6.178 C -17.036,13.373 -7.75,7.336 0,0" style="fill:#ffe6c8;fill-opacity:1;fill-rule:nonzero;stroke:none" transform="matrix(1.3333333,0,0,-1.3333333,210.99973,519.17413)" clip-path="url(#clipPath164)"/>
    <path id="path165" d="m 0,0 h -62.363 c -0.641,-0.159 -0.198,0.113 -0.839,-0.047 2.317,5.303 7.751,8.853 13.468,9.814 5.707,0.951 11.611,-0.434 16.848,-2.92 2.994,-1.422 6.366,-3.249 9.436,-1.996 1.535,0.63 2.665,1.92 3.824,3.107 1.318,1.347 2.75,2.581 4.266,3.711 C -9.823,8.325 -4.681,4.417 0,0" style="fill:#ffe6c8;fill-opacity:1;fill-rule:nonzero;stroke:none" transform="matrix(1.3333333,0,0,-1.3333333,289.1788,408.15973)" clip-path="url(#clipPath166)"/>
    <path id="path167" d="m 0,0 c 0,-11.084 -8.984,-20.068 -20.069,-20.068 -11.084,0 -20.069,8.984 -20.069,20.068 0,3.033 0.678,5.915 1.884,8.495 3.587,3.607 7.468,6.912 11.611,9.869 0.499,0.359 1.008,0.716 1.526,1.065 1.611,0.415 3.306,0.64 5.048,0.64 C -8.984,20.069 0,11.085 0,0" style="fill:#ffc76d;fill-opacity:1;fill-rule:nonzero;stroke:none" transform="matrix(1.3333333,0,0,-1.3333333,171.63453,422.28613)" clip-path="url(#clipPath168)"/>
    <path id="path169" d="m 109.407,159.39 h -2.267 v 10.807 h 2.267 z" style="fill:#ffc76d;fill-opacity:1;fill-rule:nonzero;stroke:none" transform="matrix(1.3333333,0,0,-1.3333333,0,682.66667)" clip-path="url(#clipPath170)"/>
    <path id="path171" d="M 0,0 -1.603,1.604 6.038,9.245 7.641,7.641 Z" style="fill:#ffc76d;fill-opacity:1;fill-rule:nonzero;stroke:none" transform="matrix(1.3333333,0,0,-1.3333333,168.7204,400.58693)" clip-path="url(#clipPath172)"/>
    <path id="path173" d="M 0,0 -1.603,1.604 6.038,9.245 7.641,7.641 Z" style="fill:#ffc76d;fill-opacity:1;fill-rule:nonzero;stroke:none" transform="matrix(1.3333333,0,0,-1.3333333,111.95733,457.34987)" clip-path="url(#clipPath174)"/>
    <path id="path175" d="m 143.78,193.762 h -10.807 v 2.269 h 10.807 z" style="fill:#ffc76d;fill-opacity:1;fill-rule:nonzero;stroke:none" transform="matrix(1.3333333,0,0,-1.3333333,0,682.66667)" clip-path="url(#clipPath176)"/>
    <path id="path177" d="M 0,0 -7.641,7.641 -6.038,9.245 1.603,1.604 Z" style="fill:#ffc76d;fill-opacity:1;fill-rule:nonzero;stroke:none" transform="matrix(1.3333333,0,0,-1.3333333,176.7712,457.34987)" clip-path="url(#clipPath178)"/>
    <path id="path179" d="m 0,0 c -1.476,4.142 -4.566,7.518 -7.948,10.329 -3.381,2.812 -7.119,5.176 -10.458,8.037 -10.309,8.836 -16.313,22.482 -15.863,36.053 1.681,-1.648 4.323,-2.052 6.403,-3.154 8.374,-4.439 15.009,-11.785 19.458,-20.152 4.449,-8.367 6.807,-17.727 7.857,-27.146 z" style="fill:#9f8300;fill-opacity:1;fill-rule:nonzero;stroke:none" transform="matrix(1.3333333,0,0,-1.3333333,202.4848,543.46973)" clip-path="url(#clipPath180)"/>
    <path id="path181" d="m 0,0 v -12.261 l -5.282,-2.542 -3.899,-17.261 -0.191,-0.87 -4.785,-21.185 -41.642,0.216 -4.288,20.365 -0.174,0.837 -3.99,18.958 -5.92,1.904 L -70.809,0 Z" style="fill:#300000;fill-opacity:1;fill-rule:nonzero;stroke:none" transform="matrix(1.3333333,0,0,-1.3333333,249.6892,545.34333)" clip-path="url(#clipPath182)"/>
    <g opacity="0.460007" id="g184" clip-path="url(#clipPath185)">
      <path d="m 0,0 v -12.261 l -5.282,-2.542 -3.899,-17.261 -0.191,-0.87 -4.785,-21.185 -41.642,0.216 -4.288,20.365 -0.174,0.837 -3.99,18.958 -5.92,1.904 L -70.809,0 Z" style="fill:#ff8b00;fill-opacity:1;fill-rule:nonzero;stroke:none" transform="matrix(1.3333333,0,0,-1.3333333,249.6892,545.34333)" clip-path="url(#clipPath183)" id="path184"/>
    </g>
    <path id="path186" d="M 0,0 C 0,0 8.941,-5.778 33.837,-5.637 58.734,-5.496 69.12,0 69.12,0 Z" style="fill:#300000;fill-opacity:1;fill-rule:nonzero;stroke:none" transform="matrix(1.3333333,0,0,-1.3333333,156.3116,546.3812)" clip-path="url(#clipPath187)"/>
    <path id="path188" d="m 0,0 c 0,0 33.044,-5.566 51.504,-1.902 0,0 -31.811,-6.958 -50.553,-3.012 z" style="fill:#300000;fill-opacity:1;fill-rule:nonzero;stroke:none" transform="matrix(1.3333333,0,0,-1.3333333,164.01533,563.6676)" clip-path="url(#clipPath189)"/>
    <path id="path190" d="m 0,0 c -0.019,0.028 -0.047,0.057 -0.057,0.085 -1.007,1.582 -1.525,3.466 -1.459,5.33 0.009,0.462 0.056,0.914 0.15,1.365 0,0.057 0.019,0.114 0.029,0.17 0,0.019 0.009,0.038 0.009,0.057 0.066,0.32 0.17,0.669 0.396,0.847 0.094,0.085 0.207,0.114 0.339,0.114 0.047,0 0.094,0 0.141,-0.01 C -0.057,7.883 0.386,7.544 0.65,7.12 0.659,7.101 0.668,7.092 0.678,7.072 0.725,7.007 0.763,6.932 0.801,6.856 0.867,6.725 0.933,6.593 0.989,6.451 1.714,4.596 1.064,2.411 0.575,1.187 0.433,0.829 0.235,0.424 0,0 m -7.647,-0.706 c -1.432,1.959 -1.761,4.727 -0.801,6.95 0.057,0.112 0.104,0.235 0.17,0.32 0.009,0.019 0.019,0.029 0.028,0.038 0.038,0.046 0.076,0.075 0.113,0.103 0.066,0.057 0.132,0.075 0.207,0.075 0.038,0 0.085,0 0.132,-0.018 0.094,-0.029 0.16,-0.075 0.255,-0.151 0.009,0.01 0.019,0.01 0.028,0 0.009,0 0.009,-0.009 0.009,-0.009 0.245,-0.169 0.471,-0.453 0.622,-0.763 0.979,-2.11 0.621,-4.718 -0.763,-6.545 m -9.295,-0.65 c -1.733,1.705 -2.402,4.455 -1.536,6.762 0.161,0.443 0.34,0.706 0.566,0.857 0.15,0.103 0.339,0.16 0.527,0.16 0.292,0 0.603,-0.122 0.838,-0.292 0.377,-0.302 0.669,-0.773 0.885,-1.45 0.65,-2.044 0.123,-4.408 -1.28,-6.037 m -10.944,4.417 c 0.048,0.876 0.528,2.166 1.469,2.166 h 0.02 c 0.951,-0.019 1.403,-1.337 1.412,-2.232 0.009,-1.422 -0.556,-2.853 -1.563,-4.021 -0.895,1.158 -1.404,2.618 -1.338,4.087 m -9.747,0.64 c 0.085,0.659 0.386,1.347 0.895,1.403 h 0.066 c 0.151,0 0.292,-0.056 0.414,-0.178 0.339,-0.274 0.565,-0.905 0.565,-1.507 0.019,-1.272 -0.358,-2.524 -1.036,-3.569 -0.725,1.195 -1.045,2.551 -0.904,3.851 m -9.069,0.621 c 0.056,0.133 0.122,0.264 0.217,0.349 0.094,0.085 0.197,0.103 0.292,0.103 h 0.056 c 0.207,-0.028 0.433,-0.14 0.556,-0.31 0.216,-0.292 0.32,-0.735 0.282,-1.357 -0.066,-1.186 -0.48,-2.353 -1.158,-3.333 -0.763,1.394 -0.895,3.118 -0.245,4.548 M 0.537,-0.734 C 0.885,-0.15 1.149,0.414 1.328,0.876 2.223,3.07 2.373,5.104 1.771,6.687 1.761,6.753 1.733,6.818 1.705,6.885 V 6.894 C 1.667,6.969 1.629,7.044 1.592,7.12 1.526,7.271 1.441,7.412 1.356,7.553 0.97,8.184 0.32,8.664 -0.301,8.768 c -0.424,0.085 -0.82,0 -1.14,-0.264 C -1.883,8.175 -2.034,7.647 -2.138,7.186 -2.157,7.092 -2.175,6.997 -2.194,6.903 -2.204,6.856 -2.213,6.8 -2.223,6.753 -2.317,6.159 -2.364,5.565 -2.345,4.973 c 0.019,-1.884 0.574,-3.74 1.592,-5.33 0.094,-0.142 0.179,-0.274 0.282,-0.415 -0.687,-0.97 -1.648,-1.865 -2.938,-2.053 -1.215,-0.189 -2.59,0.367 -3.645,1.422 -0.019,0.018 -0.037,0.038 -0.056,0.056 0.047,0.057 0.085,0.114 0.122,0.17 0.754,0.989 1.224,2.166 1.394,3.39 v 0.01 C -5.387,3.56 -5.556,4.954 -6.131,6.187 -6.197,6.338 -6.291,6.489 -6.395,6.64 -6.404,6.648 -6.404,6.658 -6.423,6.668 -6.706,7.072 -7.12,7.431 -7.581,7.553 -7.948,7.666 -8.306,7.6 -8.598,7.393 -8.617,7.384 -8.636,7.364 -8.655,7.346 c -0.009,0 -0.009,0 -0.009,-0.01 -0.189,-0.141 -0.32,-0.329 -0.434,-0.527 0,0 -0.009,-0.009 -0.009,-0.019 C -9.145,6.725 -9.173,6.648 -9.201,6.583 L -9.21,6.573 C -9.22,6.555 -9.229,6.526 -9.239,6.508 c -1.064,-2.533 -0.64,-5.67 1.027,-7.845 -0.113,-0.103 -0.236,-0.217 -0.349,-0.311 -2.128,-1.771 -5.424,-1.903 -7.675,-0.292 -0.028,0.019 -0.047,0.028 -0.076,0.047 1.583,1.836 2.167,4.511 1.441,6.828 -0.273,0.847 -0.649,1.45 -1.186,1.845 -0.706,0.547 -1.657,0.613 -2.326,0.17 -0.48,-0.32 -0.716,-0.847 -0.876,-1.262 -0.97,-2.589 -0.226,-5.688 1.733,-7.619 V -1.94 c -1.837,-1.591 -4.643,-1.958 -6.819,-0.904 -0.621,0.301 -1.176,0.697 -1.657,1.187 1.187,1.327 1.856,2.995 1.846,4.652 -0.01,1.487 -0.848,3.042 -2.232,3.061 h -0.029 c -1.412,0 -2.231,-1.526 -2.297,-2.957 -0.076,-1.696 0.536,-3.401 1.582,-4.728 -1.3,-1.196 -2.948,-1.827 -4.549,-1.733 -1.638,0.085 -3.239,0.932 -4.407,2.326 -0.047,0.047 -0.095,0.103 -0.132,0.151 0.876,1.242 1.384,2.769 1.356,4.304 0,0.649 -0.236,1.591 -0.838,2.128 -0.32,0.292 -0.707,0.414 -1.131,0.377 -1.017,-0.104 -1.506,-1.215 -1.619,-2.129 -0.179,-1.582 0.254,-3.249 1.205,-4.671 -0.461,-0.546 -1.017,-1.008 -1.629,-1.347 -2.015,-1.12 -4.624,-0.913 -6.348,0.499 -0.282,0.217 -0.526,0.481 -0.743,0.763 0.876,1.159 1.422,2.581 1.488,4.031 0.056,0.828 -0.095,1.451 -0.453,1.903 -0.273,0.348 -0.696,0.574 -1.13,0.621 -0.376,0.028 -0.725,-0.075 -0.979,-0.301 -0.198,-0.179 -0.32,-0.424 -0.415,-0.622 -0.8,-1.771 -0.584,-3.927 0.453,-5.594 -0.349,-0.386 -0.754,-0.734 -1.178,-1.026 -0.358,-0.245 -0.743,-0.443 -1.149,-0.584 l 0.18,-0.838 c 0.499,0.187 0.979,0.433 1.421,0.734 0.443,0.301 0.857,0.641 1.215,1.027 0.236,-0.274 0.49,-0.528 0.773,-0.763 1.977,-1.61 4.963,-1.856 7.261,-0.574 0.649,0.357 1.233,0.838 1.742,1.393 0,0 0,-0.009 0.009,-0.018 1.319,-1.564 3.136,-2.525 4.992,-2.618 1.827,-0.104 3.692,0.602 5.151,1.939 0.546,-0.546 1.177,-1.008 1.874,-1.337 0.942,-0.452 1.987,-0.678 3.033,-0.678 1.695,0 3.409,0.583 4.69,1.704 0.037,0.029 0.056,0.047 0.094,0.076 0.056,-0.047 0.122,-0.094 0.179,-0.132 2.552,-1.818 6.281,-1.676 8.683,0.33 0.122,0.103 0.254,0.216 0.367,0.329 0.113,-0.113 0.235,-0.226 0.358,-0.339 0.725,-0.631 1.629,-1.149 2.646,-1.318 0.443,-0.085 0.904,-0.095 1.375,-0.029 1.008,0.151 1.818,0.641 2.496,1.281 0.009,0 0.009,0 0.019,0.01 0.311,0.273 0.584,0.583 0.829,0.914 0.292,-0.34 0.602,-0.632 0.932,-0.896 0.009,0 0.009,-0.009 0.009,-0.009 0.189,-0.15 0.368,-0.292 0.565,-0.424 l 0.076,0.358 0.113,0.509 c -0.434,0.33 -0.838,0.725 -1.215,1.168" style="fill:#300000;fill-opacity:1;fill-rule:nonzero;stroke:none" transform="matrix(1.3333333,0,0,-1.3333333,235.10907,585.56213)" clip-path="url(#clipPath191)"/>
    <path id="path192" d="M 0,0 C -4.345,-19.383 -6.015,-39.362 -4.949,-59.197" style="fill:none;stroke:#300000;stroke-width:0.828;stroke-linecap:butt;stroke-linejoin:miter;stroke-miterlimit:10;stroke-dasharray:none;stroke-opacity:1" transform="matrix(1.3333333,0,0,-1.3333333,211.92947,465.09987)" clip-path="url(#clipPath193)"/>
    <path id="path194" d="m 0,0 c 0.227,4.334 0.183,8.683 -0.13,13.013 -0.22,3.047 -0.581,6.115 -1.599,8.996 -0.32,0.902 -0.732,1.822 -1.491,2.406 -1.764,1.359 -4.543,0.1 -5.509,-1.906 -0.967,-2.007 -0.644,-4.372 -0.222,-6.559 0.862,-4.471 2.044,-8.882 3.534,-13.185 0.225,-0.652 0.597,-2.713 1.176,-3.079 0.459,-0.29 2.034,0.013 2.6,0.09 1.269,0.173 2.175,0.505 2.941,1.57 0.973,1.352 1.41,3.182 2.161,4.669 0.9,1.778 1.942,3.485 3.112,5.098 2.339,3.228 5.189,6.087 8.431,8.408 1.708,1.222 3.626,2.333 5.726,2.395 0.669,0.02 1.389,-0.092 1.876,-0.551 0.621,-0.585 0.679,-1.57 0.45,-2.391 -0.357,-1.28 -1.267,-2.319 -2.15,-3.311 C 15.698,9.811 10.489,3.957 5.28,-1.896 3.959,-1.283 2.556,-1.107 1.341,-0.304 1.195,-0.207 -0.172,0.036 0,0" style="fill:#ffe6c8;fill-opacity:1;fill-rule:nonzero;stroke:none" transform="matrix(1.3333333,0,0,-1.3333333,212.9932,454.83693)" clip-path="url(#clipPath195)"/>
    <path id="path196" d="m 0,0 c 4.313,5.6 10.887,9.405 17.891,10.356 1.711,0.233 3.587,0.264 5.006,-0.717 C 23.293,9.365 23.655,8.991 23.754,8.52 23.836,8.127 23.723,7.717 23.546,7.356 22.793,5.828 21.043,5.117 19.443,4.535 13.807,2.484 8.171,0.434 2.535,-1.617 1.561,-1.139 0.796,-0.736 0,0" style="fill:#ffe6c8;fill-opacity:1;fill-rule:nonzero;stroke:none" transform="matrix(1.3333333,0,0,-1.3333333,221.29067,457.92933)" clip-path="url(#clipPath197)"/>
    <path id="path198" d="m 0,0 c -5.352,2.179 -10.735,4.368 -16.377,5.618 -1.437,0.318 -2.935,0.594 -4.143,1.434 -1.209,0.839 -2.041,2.435 -1.501,3.803 0.689,1.748 3.005,2.093 4.875,1.917 C -10.316,12.129 -4.189,8.255 0.927,3.685 1.775,2.926 2.649,2.067 2.862,0.949 2.871,0.903 2.579,1.563 2.579,1.516 2.661,1.393 2.668,1.363 2.608,1.228 1.542,1.195 0.912,0.555 0,0" style="fill:#ffe6c8;fill-opacity:1;fill-rule:nonzero;stroke:none" transform="matrix(1.3333333,0,0,-1.3333333,201.62987,455.1168)" clip-path="url(#clipPath199)"/>
    <path id="path200" d="m 0,0 c -1.522,-0.667 -3.057,-1.539 -3.896,-2.975 -0.838,-1.434 -0.69,-3.557 0.708,-4.456 0.572,-0.368 1.268,-0.489 1.947,-0.53 2.972,-0.182 5.831,1 8.673,1.891 5.249,1.641 10.702,1.78 15.979,3.042 -1.082,4.379 -5.67,4.836 -9.644,5.205 C 9.094,2.61 4.304,1.886 0,0" style="fill:#ffe6c8;fill-opacity:1;fill-rule:nonzero;stroke:none" transform="matrix(1.3333333,0,0,-1.3333333,170.71653,456.61813)" clip-path="url(#clipPath201)"/>
    <path id="path202" d="m 0,0 c -4.292,-1.442 -8.42,-3.548 -11.74,-6.627 -3.319,-3.079 -5.787,-7.192 -6.396,-11.679 -0.179,-1.325 -0.06,-2.939 1.094,-3.613 0.801,-0.468 1.825,-0.292 2.68,0.066 1.617,0.678 2.928,1.922 4.089,3.236 4.9,5.544 7.843,12.789 13.559,17.486 C 2.059,-0.728 1.228,-0.403 0,0" style="fill:#ffe6c8;fill-opacity:1;fill-rule:nonzero;stroke:none" transform="matrix(1.3333333,0,0,-1.3333333,206.11493,461.33427)" clip-path="url(#clipPath203)"/>
    <path id="path204" d="m 0,0 c -2.061,-6.11 -4.135,-12.274 -4.915,-18.676 -0.285,-2.343 -0.389,-4.764 0.306,-7.02 0.344,-1.119 1.063,-2.315 2.224,-2.462 1.218,-0.154 2.243,0.939 2.75,2.057 0.574,1.268 0.779,2.668 0.965,4.047 0.942,6.956 1.599,13.951 1.968,20.961 C 2.485,-0.616 0.813,-0.477 0,0" style="fill:#ffe6c8;fill-opacity:1;fill-rule:nonzero;stroke:none" transform="matrix(1.3333333,0,0,-1.3333333,211.20733,463.09853)" clip-path="url(#clipPath205)"/>
    <path id="path206" d="m 0,0 c 2.861,-7.299 3.403,-15.452 7.074,-22.381 0.758,-1.431 2,-2.977 3.608,-2.781 1.552,0.19 2.413,1.92 2.642,3.467 0.394,2.66 -0.247,5.371 -1.167,7.897 -1.822,5.002 -4.766,9.59 -8.554,13.329 C 2.367,-0.304 0.732,0.31 -0.487,0.57 -0.391,0.706 -0.097,-0.136 0,0" style="fill:#ffe6c8;fill-opacity:1;fill-rule:nonzero;stroke:none" transform="matrix(1.3333333,0,0,-1.3333333,217.1456,466.03093)" clip-path="url(#clipPath207)"/>
    <path id="path208" d="m 0,0 c 1.949,-3.304 3.675,-6.799 6.298,-9.596 0.958,-1.022 2.262,-2.007 3.63,-1.705 1.618,0.358 2.334,2.316 2.262,3.972 C 12.067,-4.517 10.515,-1.943 8.6,0.119 5.456,3.502 1.339,5.76 -2.891,7.496 -3.5,7.746 -4.863,8.605 -5.4,7.794 -5.981,6.915 -4.666,6.255 -4.104,5.672 -2.481,3.986 -1.185,2.008 0,0" style="fill:#ffe6c8;fill-opacity:1;fill-rule:nonzero;stroke:none" transform="matrix(1.3333333,0,0,-1.3333333,234.292,477.72747)" clip-path="url(#clipPath209)"/>
    <path id="path210" d="M 0,0 C 2.021,-0.521 4.003,-1.283 5.708,-2.487 7.212,-3.551 8.561,-5.561 7.583,-7.122 7.109,-7.877 6.219,-8.26 5.352,-8.464 c -3.815,-0.9 -7.695,0.82 -11.317,2.319 -2.994,1.241 -6.042,2.354 -9.131,3.338 -0.919,0.293 -4.159,1.328 -3.641,2.742 0.437,1.192 4.767,0.905 5.782,0.962 C -8.625,1.144 -4.225,1.088 0,0" style="fill:#ffe6c8;fill-opacity:1;fill-rule:nonzero;stroke:none" transform="matrix(1.3333333,0,0,-1.3333333,251.23147,462.1676)" clip-path="url(#clipPath211)"/>
    <path id="path212" d="m 0,0 c -1.078,-2.796 -7.426,-2.951 -14.18,-0.348 -6.753,2.605 -11.354,6.982 -10.276,9.777 1.078,2.796 7.427,2.952 14.18,0.347 C -3.523,7.173 1.078,2.796 0,0" style="fill:#ff8b00;fill-opacity:1;fill-rule:nonzero;stroke:none" transform="matrix(1.3333333,0,0,-1.3333333,230.01533,466.05173)" clip-path="url(#clipPath213)"/>
    <path id="path214" d="m 0,0 c 0.923,5.499 3.049,10.727 5.498,15.736 3.19,6.528 7.023,12.862 12.318,17.835 5.296,4.974 12.211,8.508 19.476,8.641 C 35.074,36.872 34.807,30.532 32.096,25.425 28.933,19.465 22.777,15.843 17.165,12.095 12.251,8.814 7.547,5.22 3.089,1.343 Z" style="fill:#9f8300;fill-opacity:1;fill-rule:nonzero;stroke:none" transform="matrix(1.3333333,0,0,-1.3333333,207.766,541.23533)" clip-path="url(#clipPath215)"/>
    <path id="path216" d="m 0,0 c -0.177,0.063 1.534,4.314 3.575,5.472 2.042,1.157 4.575,1.411 6.805,0.68 1.833,3.25 5.864,4.872 9.575,4.485 3.711,-0.388 7.07,-2.512 9.632,-5.225 1.43,2.6 4.743,3.802 7.663,3.276 2.92,-0.525 5.419,-2.51 7.156,-4.916 0.222,1.051 1.289,1.688 2.302,2.044 2.634,0.927 5.619,0.806 8.169,-0.329 2.55,-1.135 3.234,-3.053 4.308,-5.631 0,0 -41.711,-6.053 -59.185,0.144" style="fill:#300000;fill-opacity:1;fill-rule:nonzero;stroke:none" transform="matrix(1.3333333,0,0,-1.3333333,162.98147,548.16373)" clip-path="url(#clipPath217)"/>
    <path id="path218" d="m 0,0 c 0,0 -21.137,-6.342 -23.885,-8.455 -2.748,-2.113 -20.503,-27.479 -20.503,-27.479 0,0 4.438,-5.284 10.146,-1.268 5.707,4.016 12.471,9.301 12.471,9.301 l -12.683,-12.26 c 0,0 -15.219,-0.423 -18.812,-5.284 -3.593,-4.862 -3.355,-7.312 -3.355,-7.312 l 13.501,0.759 c 0,0 -8.878,-1.48 -10.569,-6.764 -1.691,-5.284 -1.902,-7.821 -1.902,-7.821 l 12.471,2.748 c 0,0 -6.553,-1.057 -7.187,-6.341 -0.634,-5.285 0,-7.398 0,-7.398 0,0 21.56,10.568 22.828,13.739 1.269,3.171 30.65,32.975 30.65,32.975 z" style="fill:#ff9066;fill-opacity:1;fill-rule:nonzero;stroke:none" transform="matrix(1.3333333,0,0,-1.3333333,298.06093,506.55427)" clip-path="url(#clipPath219)"/>
    <path id="path220" d="m 0,0 c 2.446,-0.922 5.368,0.389 6.755,2.604 1.388,2.215 1.418,5.083 0.604,7.567" style="fill:none;stroke:#300000;stroke-width:0.828;stroke-linecap:round;stroke-linejoin:round;stroke-miterlimit:10;stroke-dasharray:none;stroke-opacity:1" transform="matrix(1.3333333,0,0,-1.3333333,238.78493,554.33947)" clip-path="url(#clipPath221)"/>
    <path id="path222" d="m 0,0 c -2.123,1.523 -4.66,2.571 -7.273,2.562 -2.614,-0.01 -5.286,-1.186 -6.747,-3.352 0,0 24.129,0.394 25.82,1.663 1.691,1.269 12.682,10.991 12.682,10.991" style="fill:none;stroke:#300000;stroke-width:0.828;stroke-linecap:round;stroke-linejoin:round;stroke-miterlimit:10;stroke-dasharray:none;stroke-opacity:1" transform="matrix(1.3333333,0,0,-1.3333333,241.462,575.734)" clip-path="url(#clipPath223)"/>
    <path id="path224" d="m 0,0 c -2.228,1.488 -5.071,2.021 -7.687,1.438 -2.614,-0.582 -4.964,-2.27 -6.35,-4.562 0,0 25.663,4.358 26.932,5.768 1.268,1.409 11.132,10.004 11.132,10.004" style="fill:none;stroke:#300000;stroke-width:0.828;stroke-linecap:round;stroke-linejoin:round;stroke-miterlimit:10;stroke-dasharray:none;stroke-opacity:1" transform="matrix(1.3333333,0,0,-1.3333333,242.82133,590.87067)" clip-path="url(#clipPath225)"/>
    <path id="path226" d="m 0,0 v -50.742 c -5.688,-1.243 -11.103,-2.195 -12.563,-1.649 -3.381,1.272 -2.533,7.611 -2.533,7.611 l -4.869,-0.424 -0.857,4.389 -6.159,31.454 -0.801,4.106 4.012,1.272 c 0,0 -1.262,8.664 -0.631,12.685 0.537,3.381 17.169,8.881 22.358,10.52 C -0.706,13.024 0,6.602 0,0" style="fill:#ff4200;fill-opacity:1;fill-rule:nonzero;stroke:none" transform="matrix(1.3333333,0,0,-1.3333333,327.2132,496.17027)" clip-path="url(#clipPath227)"/>
    <path id="path228" d="m 0,0 c 0.361,2.602 2.034,4.986 4.357,6.209 2.324,1.224 5.236,1.254 7.585,0.08" style="fill:none;stroke:#300000;stroke-width:0.828;stroke-linecap:round;stroke-linejoin:round;stroke-miterlimit:10;stroke-dasharray:none;stroke-opacity:1" transform="matrix(1.3333333,0,0,-1.3333333,231.08507,609.9072)" clip-path="url(#clipPath229)"/>
    <path id="path230" d="M 0,0 C 0,0 -1.409,9.723 3.805,12.118" style="fill:none;stroke:#300000;stroke-width:0.828;stroke-linecap:round;stroke-linejoin:round;stroke-miterlimit:10;stroke-dasharray:none;stroke-opacity:1" transform="matrix(1.3333333,0,0,-1.3333333,231.0792,608.9528)" clip-path="url(#clipPath231)"/>
    <path id="path232" d="m 0,0 v -39.602 h -181.298 v 34.855 c 7.939,1.478 16.866,-1.582 21.387,-8.382 6.526,5.228 16.048,6.395 23.638,2.892 7.591,-3.494 12.893,-11.499 13.157,-19.853 9.926,6.725 24.815,4.614 32.481,-4.605 8.919,9.663 25.917,10.171 35.382,1.054 1.912,7.554 7.553,14.08 14.757,17.056 7.214,2.976 15.812,2.336 22.499,-1.677 -0.527,7.017 5.481,12.874 11.791,15.991 C -4.238,-1.291 -2.147,-0.472 0,0" style="fill:#9f8300;fill-opacity:1;fill-rule:nonzero;stroke:none" transform="matrix(1.3333333,0,0,-1.3333333,327.2132,570.0036)" clip-path="url(#clipPath233)"/>
    <path id="path234" d="m 0,0 c -3.195,0 -6.935,0.009 -10.189,0.015 -2.5,0.006 -4.712,0.01 -6.169,0.01 -0.774,0 -1.319,-0.001 -1.554,-0.004 -0.086,-0.004 -0.171,-0.006 -0.256,-0.006 -1.292,0 -2.561,0.443 -3.583,1.28 -1.413,1.159 -2.178,2.929 -2.055,4.75 0.491,7.282 0.241,19.665 -0.048,34.002 -0.716,35.447 -1.605,79.497 7.112,96.901 3.966,11.118 10.983,19.713 17.772,28.029 4.09,5.008 7.97,9.761 11.147,14.953 0.122,0.717 0.374,1.414 0.756,2.056 1.089,1.835 3.026,2.931 5.183,2.931 1.696,0 3.283,-0.677 4.492,-1.84 14.289,8.831 32.453,13.847 50.424,13.847 8.055,0 15.836,-0.968 23.202,-2.881 1.299,2.063 2.625,3.378 2.865,3.607 1.059,1.018 2.464,1.578 3.915,1.578 0.219,0 0.44,-0.014 0.66,-0.04 1.679,-0.197 3.181,-1.135 4.095,-2.557 1.443,-2.246 5.532,-2.683 11.606,-3.092 9.971,-0.674 26.645,-1.797 27.868,-24.777 0.365,-0.359 0.683,-0.767 0.942,-1.214 0.236,-0.28 0.639,-0.735 0.978,-1.118 4.962,-5.601 10.183,-12.107 9.328,-18.442 -0.122,-0.908 -0.368,-1.776 -0.729,-2.59 4.006,-7.605 6.959,-15.695 8.796,-24.103 2.68,-9.066 2.607,-42.617 2.231,-85.453 -0.121,-13.721 -0.225,-25.569 -0.015,-29.905 0.074,-1.543 -0.487,-3.05 -1.553,-4.17 -1.067,-1.119 -2.545,-1.752 -4.091,-1.752 H 7.447 C 7.276,0.015 7.106,0.022 6.939,0.038 6.444,0.021 5.903,0.017 5.302,0.013 3.958,0.004 2.095,0 0,0" style="fill:#ffffff;fill-opacity:1;fill-rule:nonzero;stroke:none" transform="matrix(1.3333333,0,0,-1.3333333,384.2276,631.0712)" clip-path="url(#clipPath235)"/>
    <path id="path236" d="m 0,0 v -94.977 h -39.196 l -50.254,23.323 -66.364,-23.323 h -25.485 V 0 c 0,0.386 0,0.772 0.01,1.158 0.028,2.27 0.141,4.521 0.339,6.752 0.49,5.774 1.535,11.396 3.06,16.802 0.905,3.202 1.978,6.319 3.222,9.361 2.872,7.101 6.62,13.749 11.122,19.815 0.555,0.762 1.12,1.507 1.713,2.241 1.187,1.507 2.421,2.975 3.702,4.407 1.036,1.15 2.1,2.279 3.192,3.372 1.225,1.234 2.486,2.43 3.777,3.578 2.495,2.242 5.104,4.342 7.835,6.291 0.302,0.217 0.613,0.434 0.923,0.651 0.198,0.14 0.405,0.282 0.603,0.414 0.499,0.339 0.989,0.678 1.497,0.998 14.249,9.371 31.314,14.814 49.65,14.814 9.37,0 18.402,-1.423 26.906,-4.059 7.026,-2.175 13.684,-5.189 19.862,-8.918 0.518,-0.312 1.036,-0.632 1.544,-0.961 4.954,-3.117 9.578,-6.705 13.816,-10.708 0.669,-0.621 1.318,-1.252 1.968,-1.903 0.537,-0.545 1.074,-1.092 1.601,-1.647 0.047,-0.048 0.104,-0.104 0.151,-0.16 0.076,-0.076 0.151,-0.16 0.217,-0.236 4.793,-5.085 8.984,-10.717 12.487,-16.801 1.037,-1.789 2.006,-3.607 2.911,-5.462 2.034,-4.135 3.748,-8.439 5.132,-12.903 0.782,-2.514 1.45,-5.076 2.016,-7.675 C -0.706,13.024 0,6.602 0,0" style="fill:#ccb654;fill-opacity:1;fill-rule:nonzero;stroke:none" transform="matrix(1.3333333,0,0,-1.3333333,602.37933,496.02573)" clip-path="url(#clipPath237)"/>
    <path id="path238" d="M 0,0 V -50.978 H -30.542 V 0.716 L -6.818,0.16 Z" style="fill:#ff9066;fill-opacity:1;fill-rule:nonzero;stroke:none" transform="matrix(1.3333333,0,0,-1.3333333,443.35973,554.69107)" clip-path="url(#clipPath239)"/>
    <path id="path240" d="m 0,0 -7.252,-0.349 -12.949,-0.612 v -39.676 h -66.124 l -19.236,7.934 -1.527,41.358 h -27.81 c 0,0 0.697,6.705 2.373,16.122 0.066,0.321 0.123,0.651 0.189,0.98 0.112,0.65 0.235,1.309 0.367,1.987 0.056,0.311 0.122,0.622 0.178,0.943 0.396,2.005 0.82,4.105 1.3,6.262 0.019,0.075 0.038,0.151 0.047,0.236 1.554,6.959 3.56,14.474 6.103,21.471 0.301,0.848 0.622,1.686 0.942,2.515 0.565,1.44 1.149,2.844 1.761,4.219 3.484,7.817 7.779,14.372 13.024,17.79 0.603,0.395 1.225,0.744 1.856,1.054 2.203,1.075 4.294,2.006 6.281,2.797 17.536,7.035 26.652,3.937 26.652,3.937 l 2.731,-1.205 2.882,-1.272 10.35,-4.567 2.317,-1.027 h 0.009 l 16.019,-7.063 14.748,-6.508 c 0,0 21.162,-19.955 23.563,-32.942 0.716,-3.843 1.112,-8.41 1.31,-12.949 0.131,-2.76 0.188,-5.51 0.188,-8.072 V 13.354 C 0.33,5.877 0,0 0,0" style="fill:#ff4200;fill-opacity:1;fill-rule:nonzero;stroke:none" transform="matrix(1.3333333,0,0,-1.3333333,577.0524,568.4788)" clip-path="url(#clipPath241)"/>
    <path id="path242" d="m 0,0 -5.771,-18.995 h 2.525 l 7.454,12.864 z" style="fill:#ffe6c8;fill-opacity:1;fill-rule:nonzero;stroke:none" transform="matrix(1.3333333,0,0,-1.3333333,484.074,500.03347)" clip-path="url(#clipPath243)"/>
    <path id="path244" d="M 0,0 V -11.381 H 22.282 V -0.48 C 22.282,-0.48 -0.241,0.241 0,0" style="fill:#ffe6c8;fill-opacity:1;fill-rule:nonzero;stroke:none" transform="matrix(1.3333333,0,0,-1.3333333,483.6468,492.82)" clip-path="url(#clipPath245)"/>
    <path id="path246" d="m 0,0 v -23.563 c 0,0 -11.542,-6.894 -11.862,-18.596 -0.321,-11.701 2.725,-16.671 2.725,-16.671 h 35.586 c 0,0 3.366,9.458 1.283,19.236 -2.084,9.779 -12.023,16.191 -12.023,16.191 v 21.319 z" style="fill:#ffe6c8;fill-opacity:1;fill-rule:nonzero;stroke:none" transform="matrix(1.3333333,0,0,-1.3333333,491.55507,502.01)" clip-path="url(#clipPath247)"/>
    <path id="path248" d="m 365.941,135.813 h -7.213 v 5.29 h 7.213 z" style="fill:#ffe6c8;fill-opacity:1;fill-rule:nonzero;stroke:none" transform="matrix(1.3333333,0,0,-1.3333333,0,682.66667)" clip-path="url(#clipPath249)"/>
    <path id="path250" d="M 0,0 V -5.29 H -0.962 Z" style="fill:#300000;fill-opacity:1;fill-rule:nonzero;stroke:none" transform="matrix(1.3333333,0,0,-1.3333333,483.8604,494.6364)" clip-path="url(#clipPath251)"/>
    <path id="path252" d="m 0,0 8.655,-5.528 c 0,0 -11.301,-9.861 -30.542,-5.773 -19.23,4.087 -18.514,27.414 -18.514,27.414 l 16.593,-5.056 0.782,0.762 7.873,7.657 20.898,-1.903 8.202,-0.744 z" style="fill:#ff9066;fill-opacity:1;fill-rule:nonzero;stroke:none" transform="matrix(1.3333333,0,0,-1.3333333,532.488,471.33947)" clip-path="url(#clipPath253)"/>
    <path id="path254" d="m 0,0 c -1.206,-2.081 -2.938,-3.805 -4.765,-5.368 -1.997,-1.714 -4.191,-3.296 -6.715,-4.022 -4.756,-1.365 -10.199,0.754 -13.09,4.766 -1.385,1.921 -2.185,4.219 -2.421,6.583 L -19.118,9.615 1.78,7.713 C 1.94,5.038 1.347,2.316 0,0" style="fill:#300000;fill-opacity:1;fill-rule:nonzero;stroke:none" transform="matrix(1.3333333,0,0,-1.3333333,537.7744,458.1924)" clip-path="url(#clipPath255)"/>
    <path id="path256" d="m 0,0 c -6.121,-4.417 -16.453,0.791 -26.426,8.354 2.825,0 9.917,0.715 14.645,7.515 3.626,5.217 5.067,12.28 5.632,17.055 C 7.77,20.521 11.273,8.128 0,0" style="fill:#ff9066;fill-opacity:1;fill-rule:nonzero;stroke:none" transform="matrix(1.3333333,0,0,-1.3333333,587.31093,585.4684)" clip-path="url(#clipPath257)"/>
    <path id="path258" d="m 0,0 c -0.565,-4.774 -2.006,-11.838 -5.632,-17.055 -4.727,-6.799 -11.819,-7.515 -14.644,-7.515 -13.957,10.576 -27.199,25.785 -27.199,25.785 0,0 -27.65,2.646 -28.13,5.528 -0.48,2.892 5.773,2.411 5.773,2.411 -1.686,5.284 2.157,5.048 2.157,5.048 -3.362,3.127 0,6.488 0,6.488 h -0.961 c -11.301,-5.772 -13.702,0.961 -13.702,0.961 0,0 22.602,9.145 25.248,10.106 2.647,0.96 16.104,-5.048 41.833,-20.682 C -9.305,7.459 -4.182,3.729 0,0" style="fill:#ffc76d;fill-opacity:1;fill-rule:nonzero;stroke:none" transform="matrix(1.3333333,0,0,-1.3333333,579.11173,541.57)" clip-path="url(#clipPath259)"/>
    <path id="path260" d="m 0,0 c 0,0 2.164,-3.844 6.612,-3.122 4.448,0.722 7.935,1.804 7.935,1.804" style="fill:none;stroke:#300000;stroke-width:0.828;stroke-linecap:butt;stroke-linejoin:miter;stroke-miterlimit:10;stroke-dasharray:none;stroke-opacity:1" transform="matrix(1.3333333,0,0,-1.3333333,469.3272,512.70147)" clip-path="url(#clipPath261)"/>
    <path id="path262" d="m 0,0 -7.935,-1.803 c 0,0 -2.164,-1.683 -0.24,-5.771" style="fill:none;stroke:#300000;stroke-width:0.828;stroke-linecap:butt;stroke-linejoin:miter;stroke-miterlimit:10;stroke-dasharray:none;stroke-opacity:1" transform="matrix(1.3333333,0,0,-1.3333333,498.822,512.0556)" clip-path="url(#clipPath263)"/>
    <path id="path264" d="m 0,0 c 0,0 -1.447,4.085 1.92,5.647 3.366,1.564 9.858,1.684 9.858,1.684" style="fill:none;stroke:#300000;stroke-width:0.828;stroke-linecap:butt;stroke-linejoin:miter;stroke-miterlimit:10;stroke-dasharray:none;stroke-opacity:1" transform="matrix(1.3333333,0,0,-1.3333333,486.00293,529.36427)" clip-path="url(#clipPath265)"/>
    <path id="path266" d="m 0,0 c 0,0 -19.714,0.232 -19.235,-3.01 0.48,-3.242 24.645,-5.286 26.809,-5.526 2.164,-0.24 3.607,-2.404 3.607,-2.404" style="fill:none;stroke:#300000;stroke-width:0.828;stroke-linecap:butt;stroke-linejoin:miter;stroke-miterlimit:10;stroke-dasharray:none;stroke-opacity:1" transform="matrix(1.3333333,0,0,-1.3333333,503.9516,528.566)" clip-path="url(#clipPath267)"/>
    <path id="path268" d="m 0,0 v 10.189 0.942 38.161 1.846 13.975 0.96 2.308 0.941 3.693" style="fill:none;stroke:#300000;stroke-width:0.828;stroke-linecap:butt;stroke-linejoin:miter;stroke-miterlimit:10;stroke-dasharray:none;stroke-opacity:1" transform="matrix(1.3333333,0,0,-1.3333333,434.26853,622.66107)" clip-path="url(#clipPath269)"/>
    <path id="path270" d="m 0,0 c 4.142,4.222 6.709,9.994 6.709,16.376 0,12.926 -10.478,23.404 -23.403,23.404 -8.754,0 -16.38,-4.808 -20.394,-11.926 l -0.125,0.064 c 0,0 -8.496,-13.145 -8.015,-24.525 0.481,-11.382 3.206,-14.588 3.206,-14.588 0,0 16,-7.138 28.538,4.099 1.28,-1.627 5.488,-6.13 10.776,-2.937 C 3.085,-6.535 2.807,-2.053 0,0" style="fill:#ff9066;fill-opacity:1;fill-rule:nonzero;stroke:none" transform="matrix(1.3333333,0,0,-1.3333333,562.54533,446.26)" clip-path="url(#clipPath271)"/>
    <path id="path272" d="m 0,0 c -0.764,-1.323 -1.965,-2.059 -2.684,-1.644 -0.719,0.415 -0.682,1.824 0.081,3.147 0.764,1.322 1.965,2.058 2.684,1.643 C 0.8,2.73 0.764,1.322 0,0" style="fill:#300000;fill-opacity:1;fill-rule:nonzero;stroke:none" transform="matrix(1.3333333,0,0,-1.3333333,520.19373,423.12853)" clip-path="url(#clipPath273)"/>
    <path id="path274" d="m 0,0 c -0.764,-1.322 -1.965,-2.058 -2.684,-1.643 -0.719,0.415 -0.683,1.824 0.081,3.146 0.764,1.323 1.965,2.059 2.684,1.643 C 0.8,2.731 0.764,1.323 0,0" style="fill:#300000;fill-opacity:1;fill-rule:nonzero;stroke:none" transform="matrix(1.3333333,0,0,-1.3333333,541.5004,435.35253)" clip-path="url(#clipPath275)"/>
    <path id="path276" d="m 0,0 -4.969,-5.771 -2.485,0.321 0.321,-3.848" style="fill:none;stroke:#300000;stroke-width:0.942;stroke-linecap:round;stroke-linejoin:round;stroke-miterlimit:10;stroke-dasharray:none;stroke-opacity:1" transform="matrix(1.3333333,0,0,-1.3333333,530.13387,423.99707)" clip-path="url(#clipPath277)"/>
    <path id="path278" d="m 0,0 c 0,0 0.321,-2.565 2.485,-2.726 2.163,-0.16 3.205,1.844 3.205,1.844" style="fill:none;stroke:#300000;stroke-width:0.942;stroke-linecap:round;stroke-linejoin:round;stroke-miterlimit:10;stroke-dasharray:none;stroke-opacity:1" transform="matrix(1.3333333,0,0,-1.3333333,517.2028,440.13373)" clip-path="url(#clipPath279)"/>
    <path id="path280" d="m 0,0 c 0.627,0.314 1.328,0.48 2.029,0.479 0.79,0 1.59,-0.218 2.225,-0.687 0.635,-0.47 1.089,-1.201 1.15,-1.988" style="fill:none;stroke:#300000;stroke-width:0.942;stroke-linecap:round;stroke-linejoin:round;stroke-miterlimit:10;stroke-dasharray:none;stroke-opacity:1" transform="matrix(1.3333333,0,0,-1.3333333,518.74187,411.15453)" clip-path="url(#clipPath281)"/>
    <path id="path282" d="M 0,0 C 0.977,0.21 2.043,-0.049 2.815,-0.682 3.588,-1.315 4.05,-2.311 4.036,-3.31" style="fill:none;stroke:#300000;stroke-width:0.942;stroke-linecap:round;stroke-linejoin:round;stroke-miterlimit:10;stroke-dasharray:none;stroke-opacity:1" transform="matrix(1.3333333,0,0,-1.3333333,543.18787,425.24827)" clip-path="url(#clipPath283)"/>
    <path id="path284" d="M 0,0 C 3,2.262 7.206,2.813 10.687,1.399" style="fill:none;stroke:#300000;stroke-width:0.942;stroke-linecap:round;stroke-linejoin:round;stroke-miterlimit:10;stroke-dasharray:none;stroke-opacity:1" transform="matrix(1.3333333,0,0,-1.3333333,550.6416,454.11947)" clip-path="url(#clipPath285)"/>
    <path id="path286" d="M 0,0 C 0.668,-0.014 1.199,-0.582 1.498,-1.18 1.971,-2.127 2.064,-3.257 1.754,-4.27" style="fill:none;stroke:#300000;stroke-width:0.942;stroke-linecap:round;stroke-linejoin:round;stroke-miterlimit:10;stroke-dasharray:none;stroke-opacity:1" transform="matrix(1.3333333,0,0,-1.3333333,555.56547,451.96053)" clip-path="url(#clipPath287)"/>
    <path id="path288" d="m 0,0 c -3.828,-2.585 -6.843,-6.355 -8.523,-10.657 -1.681,-4.303 -2.019,-9.118 -0.956,-13.614 -0.759,-0.924 -1.725,-1.707 -2.483,-2.63 0,0 10.343,2.521 10.944,-1.086 0,0 17.914,10.58 17.793,14.908 -0.12,4.328 -9.858,15.268 -9.858,15.268 z" style="fill:#300000;fill-opacity:1;fill-rule:nonzero;stroke:none" transform="matrix(1.3333333,0,0,-1.3333333,566.70347,413.5048)" clip-path="url(#clipPath289)"/>
    <path id="path290" d="m 0,0 c 0,0 -6.011,-5.771 -3.006,-11.782 3.006,-6.012 10.46,-6.372 10.46,-6.372 0,0 -0.962,-6.853 6.853,-9.979 7.815,-3.126 18.875,-3.727 18.875,-3.727 l 7.093,3.006 c 0,0 -1.563,0 -1.683,3.606 -0.12,3.607 -2.164,16.471 -12.263,18.394 C 16.23,-4.93 1.322,-6.012 0,0" style="fill:#300000;fill-opacity:1;fill-rule:nonzero;stroke:none" transform="matrix(1.3333333,0,0,-1.3333333,522.2256,372.11293)" clip-path="url(#clipPath291)"/>
    <path id="path292" d="m 0,0 c 0.6,4.298 -0.245,8.786 -2.368,12.572 -2.523,4.5 -6.649,7.827 -10.39,11.38 -3.096,2.942 -6.003,6.13 -8.199,9.793 -2.195,3.663 -3.66,7.837 -3.708,12.108 -0.043,3.82 1.038,7.574 2.478,11.114 -3.098,5.859 -4.353,12.407 -3.598,18.993 0.755,6.585 3.542,12.923 7.886,17.931 5.534,-2.253 10.423,-5.987 13.668,-11.003 C -0.987,77.871 0.674,71.847 0.458,65.876 4.689,61.812 6.825,55.876 7.4,50.037 7.975,44.199 7.082,38.318 5.939,32.564 3.834,21.964 1.335,10.725 0,0" style="fill:#9f8300;fill-opacity:1;fill-rule:nonzero;stroke:none" transform="matrix(1.3333333,0,0,-1.3333333,432.9756,516.95933)" clip-path="url(#clipPath293)"/>
    <path id="path294" d="m 0,0 c -0.03,1.745 -1.978,2.306 -3.625,2.885 -1.647,0.578 -3.442,0.489 -5.188,0.459 -4.778,-0.084 -9.731,0.371 -13.915,2.679 -4.185,2.31 -7.423,6.844 -6.995,11.604 -2.657,0.066 -5.146,1.349 -7.395,2.766 -2.272,1.431 -4.591,2.906 -6.24,5.025 -1.374,1.765 -2.213,3.898 -2.711,6.079 -1.321,5.783 -0.326,11.862 1.414,17.533 5.755,-2.912 11.353,-5.872 16.783,-9.352 4.271,-2.738 8.324,-5.817 12.105,-9.199 4.334,-3.877 8.345,-8.195 11.275,-13.217 C -1.561,12.238 0.255,5.81 0,0" style="fill:#9f8300;fill-opacity:1;fill-rule:nonzero;stroke:none" transform="matrix(1.3333333,0,0,-1.3333333,432.13707,528.93973)" clip-path="url(#clipPath295)"/>
    <path id="path296" d="m 0,0 c 0,0 18.687,-9.757 29.908,-23.062 11.22,-13.305 15.549,-27.572 15.549,-27.572 0,0 0,6.572 0.16,11.382 0.16,4.809 1.443,42.96 -4.489,63.157 -5.93,20.199 -13.743,29.941 -13.743,29.941" style="fill:none;stroke:#300000;stroke-width:0.942;stroke-linecap:round;stroke-linejoin:round;stroke-miterlimit:10;stroke-dasharray:none;stroke-opacity:1" transform="matrix(1.3333333,0,0,-1.3333333,372.59667,463.566)" clip-path="url(#clipPath297)"/>
    <path id="path298" d="M 0,0 C 1.737,11.151 4.493,22.425 10.734,31.829 18.921,44.167 33.049,52.361 47.825,53.341 49.447,48.457 48.757,42.769 46.252,38.272 43.748,33.776 39.3,30.407 34.293,29.216 34.786,26.714 35.214,24.158 34.941,21.623 34.606,18.516 33.186,15.537 30.983,13.32 27.068,9.382 21.268,8.16 15.833,7.02 10.398,5.879 3.619,4.212 0,0" style="fill:#9f8300;fill-opacity:1;fill-rule:nonzero;stroke:none" transform="matrix(1.3333333,0,0,-1.3333333,435.25427,519.1012)" clip-path="url(#clipPath299)"/>
    <path id="path300" d="m 0,0 c 0,0 -13.133,-1.729 -27.24,-19.844 -14.106,-18.113 -18.594,-26.449 -19.877,-32.381 -1.282,-5.93 -1.282,-10.258 -1.282,-10.258" style="fill:none;stroke:#300000;stroke-width:0.942;stroke-linecap:round;stroke-linejoin:round;stroke-miterlimit:10;stroke-dasharray:none;stroke-opacity:1" transform="matrix(1.3333333,0,0,-1.3333333,499.02053,447.98013)" clip-path="url(#clipPath301)"/>
    <path id="path302" d="m 0,0 -0.612,-6.263 -0.094,-0.942 -0.16,-1.601 -0.085,-0.942 -5.359,-54.707 -0.094,-0.941 -0.998,-10.19 h -50.733 l -1.45,10.19 -0.142,0.941 -7.496,52.532 -0.141,1.008 -0.537,3.71 -0.132,0.942 L -68.928,0 Z" style="fill:#300000;fill-opacity:1;fill-rule:nonzero;stroke:none" transform="matrix(1.3333333,0,0,-1.3333333,472.31547,521.87987)" clip-path="url(#clipPath303)"/>
    <g opacity="0.360001" id="g305" clip-path="url(#clipPath306)">
      <path d="m 0,0 -0.612,-6.263 -0.094,-0.942 -0.16,-1.601 -0.085,-0.942 -5.359,-54.707 -0.094,-0.941 -0.998,-10.19 h -50.733 l -1.45,10.19 -0.142,0.941 -7.496,52.532 -0.141,1.008 -0.537,3.71 -0.132,0.942 L -68.928,0 Z" style="fill:#ff4200;fill-opacity:1;fill-rule:nonzero;stroke:none" transform="matrix(1.3333333,0,0,-1.3333333,472.31547,521.87987)" clip-path="url(#clipPath304)" id="path305"/>
    </g>
    <path id="path307" d="M 0,0 C -0.188,-0.16 -0.339,-0.235 -0.452,-0.244 -0.735,-0.292 -0.97,0.151 -1.064,0.527 -1.498,2.204 -0.584,3.805 0.725,5.048 1.083,4.333 1.262,3.514 1.224,2.693 1.177,1.592 0.744,0.632 0,0 m -10.35,-0.019 c -0.151,-0.263 -0.405,-0.584 -0.716,-0.64 -0.367,-0.075 -0.763,0.273 -0.904,0.631 -0.151,0.386 -0.141,0.885 0.028,1.545 0.254,1.026 0.726,2.005 1.357,2.863 0.8,-1.385 1.045,-3.052 0.235,-4.399 m -11.348,1.046 c -0.264,-0.471 -0.791,-1.017 -1.366,-0.97 -0.527,0.038 -0.923,0.565 -1.026,1.046 -0.114,0.499 -0.029,1.101 0.273,1.835 0.395,0.961 0.998,1.846 1.752,2.582 0.866,-1.348 1.167,-3.071 0.367,-4.493 m -13.034,0.791 c 0.056,-0.895 -0.358,-2.166 -1.262,-2.222 -0.274,-0.01 -0.527,0.085 -0.763,0.292 -0.405,0.376 -0.688,1.073 -0.706,1.732 -0.029,1.234 0.47,2.505 1.365,3.56 0.801,-0.998 1.3,-2.166 1.366,-3.362 m -12.271,-0.17 c 0.131,-0.8 -0.123,-1.76 -0.575,-2.222 -0.226,-0.236 -0.48,-0.329 -0.772,-0.292 -0.735,0.095 -1.13,1.13 -1.13,2.044 0,1.233 0.386,2.448 1.055,3.503 0.734,-0.876 1.252,-1.921 1.422,-3.033 M 2.411,7.422 C 1.921,7.148 1.413,6.818 0.932,6.451 0.838,6.564 0.744,6.668 0.64,6.771 -1.149,8.599 -4.21,9.183 -6.96,8.222 -8.307,7.761 -9.531,6.941 -10.52,5.915 c -0.405,0.471 -0.856,0.895 -1.355,1.233 -1.771,1.215 -3.975,1.714 -6.084,1.413 -0.424,-0.056 -0.839,-0.151 -1.244,-0.273 -0.998,-0.302 -1.921,-0.782 -2.731,-1.403 -0.33,0.377 -0.706,0.696 -1.102,0.969 -2.505,1.677 -5.584,1.526 -7.732,1.102 -2.119,-0.414 -3.851,-1.177 -5.142,-2.269 -0.056,-0.047 -0.112,-0.094 -0.169,-0.141 -0.754,0.716 -1.648,1.308 -2.656,1.714 -1.422,0.584 -2.976,0.781 -4.473,0.621 -1.159,-0.132 -2.289,-0.489 -3.268,-1.055 -0.773,-0.442 -1.46,-1.016 -2.034,-1.685 -1.262,1.13 -2.891,1.845 -4.606,1.912 -1.29,0.037 -2.551,-0.292 -3.673,-0.895 l 0.142,-1.008 c 1.055,0.65 2.279,1.008 3.494,0.96 1.497,-0.056 2.938,-0.715 4.059,-1.732 -0.839,-1.243 -1.328,-2.712 -1.328,-4.2 0,-1.31 0.612,-2.797 1.949,-2.977 0.085,-0.009 0.17,-0.018 0.255,-0.018 0.489,0 0.941,0.198 1.309,0.584 0.668,0.677 1.007,1.92 0.838,3.023 -0.217,1.375 -0.857,2.647 -1.771,3.682 0.518,0.612 1.131,1.131 1.837,1.535 0.791,0.452 1.686,0.754 2.609,0.894 1.421,0.217 2.938,0.057 4.313,-0.507 0.885,-0.368 1.676,-0.886 2.345,-1.517 -1.093,-1.243 -1.696,-2.778 -1.667,-4.275 0.019,-0.933 0.405,-1.846 1.008,-2.402 0.423,-0.387 0.932,-0.575 1.459,-0.547 1.46,0.085 2.232,1.705 2.147,3.221 -0.084,1.423 -0.687,2.816 -1.648,3.984 0.047,0.038 0.085,0.076 0.132,0.113 1.178,0.979 2.76,1.676 4.718,2.062 2.788,0.556 5.284,0.208 7.026,-0.96 0.33,-0.226 0.64,-0.49 0.914,-0.791 -0.876,-0.839 -1.583,-1.855 -2.044,-2.995 -0.368,-0.913 -0.471,-1.695 -0.32,-2.391 0.216,-0.961 1.007,-1.715 1.883,-1.781 0.998,-0.056 1.827,0.698 2.251,1.45 1.008,1.781 0.612,3.937 -0.471,5.576 0.725,0.555 1.544,0.989 2.411,1.243 0.32,0.094 0.65,0.17 0.98,0.217 1.911,0.3 3.964,-0.142 5.546,-1.234 0.471,-0.32 0.895,-0.716 1.263,-1.168 -0.801,-1.027 -1.394,-2.204 -1.705,-3.457 -0.142,-0.536 -0.283,-1.346 0.009,-2.099 0.273,-0.726 1.046,-1.404 1.95,-1.225 0.527,0.095 0.988,0.471 1.356,1.083 1.045,1.752 0.678,3.928 -0.415,5.642 0.914,0.979 2.054,1.752 3.306,2.194 2.42,0.848 5.076,0.349 6.621,-1.225 C 0.056,6.027 0.132,5.943 0.207,5.849 -1.385,4.38 -2.524,2.421 -1.978,0.292 c 0.188,-0.753 0.744,-1.479 1.563,-1.479 0.443,0.02 0.801,0.284 1.027,0.471 C 1.554,0.085 2.1,1.281 2.166,2.656 2.213,3.711 1.958,4.775 1.459,5.67 1.912,6.027 2.401,6.339 2.872,6.603 4.869,7.704 7.317,8.42 9.625,8.325 L 9.709,9.268 C 7.195,9.371 4.548,8.608 2.411,7.422" style="fill:#300000;fill-opacity:1;fill-rule:nonzero;stroke:none" transform="matrix(1.3333333,0,0,-1.3333333,458.21453,545.97747)" clip-path="url(#clipPath308)"/>
    <path id="path309" d="M 0,0 -0.094,-0.941 H -67.289 L -67.421,0 Z" style="fill:#300000;fill-opacity:1;fill-rule:nonzero;stroke:none" transform="matrix(1.3333333,0,0,-1.3333333,471.50227,530.23667)" clip-path="url(#clipPath310)"/>
    <path id="path311" d="M 0,0 -0.094,-0.941 H -53.275 L -53.417,0 Z" style="fill:#300000;fill-opacity:1;fill-rule:nonzero;stroke:none" transform="matrix(1.3333333,0,0,-1.3333333,463.90533,607.8252)" clip-path="url(#clipPath312)"/>
  </g>
</svg>